<svg width="14" height="13" viewBox="0 0 14 13" fill="none" xmlns="http://www.w3.org/2000/svg">
<path d="M7.65364 0.490532L8.80326 3.76446C8.84448 3.88875 8.92221 3.99759 9.02623 4.07664C9.13024 4.15569 9.25565 4.20125 9.38595 4.20731L12.7088 4.3892C12.8448 4.40045 12.9744 4.45224 13.0809 4.53793C13.1874 4.62362 13.266 4.7393 13.3066 4.87015C13.3472 5.001 13.348 5.14104 13.3088 5.27233C13.2697 5.40362 13.1923 5.52017 13.0868 5.60704L10.4804 7.77384C10.379 7.86019 10.3038 7.97347 10.2634 8.10073C10.223 8.22799 10.2191 8.36409 10.2521 8.49347L11.1576 11.8623C11.2101 11.9949 11.2187 12.141 11.182 12.2789C11.1454 12.4168 11.0655 12.5392 10.9541 12.6279C10.8428 12.7167 10.706 12.767 10.564 12.7716C10.4219 12.7761 10.2822 12.7346 10.1655 12.6531L7.40167 10.6366C7.29652 10.5594 7.16967 10.5179 7.03946 10.5179C6.90925 10.5179 6.78241 10.5594 6.67726 10.6366L3.88982 12.574C3.77312 12.6555 3.6334 12.697 3.49135 12.6925C3.3493 12.688 3.21249 12.6376 3.10117 12.5489C2.98985 12.4601 2.90995 12.3378 2.8733 12.1999C2.83665 12.062 2.8452 11.9159 2.89768 11.7832L3.80321 8.41439C3.83621 8.28501 3.8323 8.14891 3.79192 8.02165C3.75154 7.89439 3.67632 7.78111 3.57486 7.69476L0.992151 5.5675C0.899245 5.4782 0.833242 5.36444 0.801694 5.23923C0.770147 5.11402 0.774329 4.98242 0.813761 4.85949C0.853194 4.73656 0.926284 4.62726 1.02467 4.54409C1.12306 4.46092 1.24277 4.40724 1.37011 4.3892L4.67723 4.20731C4.80753 4.20125 4.93294 4.15569 5.03695 4.07664C5.14096 3.99759 5.2187 3.88875 5.25992 3.76446L6.40954 0.490532C6.44735 0.354025 6.52864 0.233715 6.64097 0.147996C6.75331 0.0622773 6.89051 0.0158691 7.03159 0.0158691C7.17267 0.0158691 7.30987 0.0622773 7.42221 0.147996C7.53454 0.233715 7.61583 0.354025 7.65364 0.490532Z" fill="#FFE500"/>
</svg>
