<svg width="20" height="20" viewBox="0 0 20 20" fill="none" xmlns="http://www.w3.org/2000/svg">
<path d="M19.6372 10.1589L15.1802 17.2574C15.1227 17.3452 15.0259 17.3997 14.923 17.3997H9.37067C9.25872 17.3997 9.15887 17.3391 9.10438 17.2423C9.04989 17.1485 9.05293 17.0305 9.11344 16.9367L13.4736 9.99849L9.11344 3.06337C9.05293 2.96958 9.04989 2.85157 9.10438 2.75775C9.15883 2.66095 9.25868 2.6004 9.37067 2.6004H14.923C15.0259 2.6004 15.1227 2.65489 15.1802 2.74263L19.6372 9.83814C19.6977 9.93497 19.6977 10.0621 19.6372 10.1589Z" fill="white"/>
<path d="M6.17371 17.3999C6.22494 17.4 6.27533 17.387 6.32015 17.3621C6.36496 17.3373 6.40273 17.3015 6.42989 17.2581L10.8871 10.159C10.9174 10.1108 10.9335 10.055 10.9335 9.99809C10.9335 9.94115 10.9174 9.88537 10.8871 9.83719L6.42992 2.74161C6.40267 2.69828 6.36488 2.66258 6.32008 2.63783C6.27528 2.61308 6.22493 2.60009 6.17375 2.60008H0.620003C0.565917 2.60007 0.512818 2.61456 0.466231 2.64204C0.419645 2.66951 0.381275 2.70897 0.355115 2.75631C0.328955 2.80365 0.315962 2.85713 0.317488 2.9112C0.319014 2.96526 0.335003 3.01793 0.363792 3.06372L4.72313 9.99825L0.363831 16.9363C0.335033 16.9821 0.319047 17.0348 0.317542 17.0888C0.316038 17.1429 0.329069 17.1963 0.355276 17.2436C0.381371 17.291 0.419707 17.3305 0.46628 17.358C0.512854 17.3855 0.565956 17.4 0.620042 17.4H6.17371V17.3999ZM5.33676 10.1593C5.3671 10.111 5.38319 10.0552 5.38319 9.99823C5.38319 9.94125 5.3671 9.88543 5.33676 9.83719L1.1677 3.20524H6.00649L10.2736 9.99825L6.00649 16.7948H1.16754L5.33676 10.1593Z" fill="white"/>
</svg>
