<svg width="240" height="80" viewBox="0 0 281 80" fill="none" xmlns="http://www.w3.org/2000/svg">
<g clip-path="url(#clip0_4_146)">
<path d="M71.448 11.5869C71.448 11.5869 75.7687 10.8559 75.8261 10.4081C75.88 9.95687 71.8958 10.4081 71.8958 10.4081C71.8958 10.4081 75.7114 9.34062 76.1056 8.49875C76.4861 7.68718 58.0242 0.789998 48.807 15.2577L47.805 19.7034L52.6445 22.0772L69.2456 13.6883C72.9803 14.2642 76.2203 14.6717 76.6683 14.4494C77.7894 13.8869 71.448 11.5869 71.448 11.5869Z" fill="#703A2C"/>
<path d="M45.8736 31.7709L35.5461 34.9163L39.155 27.5052C39.155 27.5052 29.9335 25.9898 29.6527 24.6988C29.3718 23.4077 40.4852 27.2242 40.4852 27.2242L38.4083 32.5567L45.3736 30.985L45.8736 31.7709Z" fill="#84AAD8"/>
<path d="M40.6533 27.1684L40.2324 28.5434L39.2783 27.7014C39.2783 27.7014 38.8294 28.8445 38.4085 28.6659C37.9874 28.4875 38.5903 27.6455 38.5903 27.6455C38.5903 27.6455 29.8766 26.467 29.4278 24.6989C28.9786 22.9306 37.9591 25.9338 40.6533 27.1684Z" fill="#003FBC"/>
<path d="M43.5725 17.8511C43.5725 17.8511 38.4119 11.9897 37.2675 19.2542C37.2675 19.2542 39.0823 18.8614 39.0259 19.2542C38.9697 19.647 37.1192 19.7594 37.1192 19.7594C37.1192 19.7594 40.1484 22.7341 39.475 23.1831C38.8014 23.6322 36.6811 20.4292 36.6811 20.4292C36.6811 20.4292 37.575 24.6705 37.1192 24.6986C36.6634 24.7267 36.1633 20.6573 36.1633 20.6573C36.1633 20.6573 35.827 24.3617 35.2092 24.3056C34.5916 24.2495 35.6581 20.545 35.6581 20.545C35.6581 20.545 34.0537 23.183 33.5089 22.6217C32.9639 22.0605 36.1631 18.8611 36.1631 18.8611C36.1631 18.8611 36.6436 12.2941 39.7992 12.2941C42.9548 12.2941 44.863 16.3355 44.863 16.3355L43.5725 17.8511Z" fill="#FFBB8D"/>
<path d="M71.2441 36.1419L72.4788 31.4006L74.1066 32.0516L71.5805 36.3736L71.2441 36.1419Z" fill="#07183D"/>
<path d="M78.8213 28.5605C78.8213 31.335 76.9805 33.5839 74.7103 33.5839C72.4392 33.5839 70.5988 31.335 70.5988 28.5605C70.5988 25.7861 72.4392 23.537 74.7103 23.537C76.9803 23.537 78.8213 25.7861 78.8213 28.5605Z" fill="#FF487C"/>
<path d="M62.1511 31.7709L70.9633 34.5878C70.9633 34.5878 71.1877 33.1794 71.7489 33.2864C72.3105 33.3936 71.8053 34.9141 71.8053 34.9141H73.8819C73.8819 34.9141 69.7294 41.0883 70.9633 36.1417L62.1511 32.8091V31.7709Z" fill="#FFBB8D"/>
<path d="M71.0722 38.0878L70.7486 37.9951L71.6434 34.8676L71.9903 34.8791L71.0722 38.0878Z" fill="#07183D"/>
<path d="M71.5592 35.6936L71.6106 35.3609L73.4041 35.6386L73.2172 35.9358L71.5592 35.6936ZM72.6753 36.6386L71.3922 36.4289L71.4467 36.0962L72.8802 36.3675L72.6753 36.6386ZM46.7717 17.7387L44.8631 14.7078L41.2148 19.2542L46.3753 22.7344C46.3753 22.7344 37.9492 25.4741 47.805 37.5189L55.9208 37.833C55.9208 37.833 59.1759 35.3069 58.7272 32.8092L61.4214 35.8123L65.2944 31.4006L59.6817 29.7505L46.7717 17.7387Z" fill="#07183D"/>
<path d="M66.5077 26.4048L68.6395 26.91C68.6395 26.91 65.8914 31.7931 56.2362 31.3992C47.6858 31.0525 47.8775 26.6372 48.9687 23.7208C47.7598 22.8283 45.7527 20.9592 45.4023 18.2078C45.022 15.2105 46.8336 12.7856 48.8072 15.2577C49.457 16.0728 50.1237 17.4164 50.7367 19.4437L56.8527 11.5869C56.8527 11.5869 63.6117 12.8227 69.2458 13.6883C69.8991 16.8437 70.458 22.8147 66.5077 26.4048Z" fill="#FFBB8D"/>
<path d="M63.2705 21.743C62.5675 24.9786 60.4816 27.272 58.6122 26.8661C56.7436 26.46 55.7974 23.5077 56.501 20.272C57.2042 17.0362 59.2895 14.743 61.1588 15.1489C63.0278 15.555 63.9738 18.5075 63.2705 21.743Z" fill="white"/>
<path d="M62.712 22.4536C62.712 22.6024 62.6529 22.7452 62.5477 22.8505C62.4424 22.9557 62.2996 23.0148 62.1508 23.0148C62.0019 23.0148 61.8592 22.9557 61.7539 22.8505C61.6487 22.7452 61.5895 22.6024 61.5895 22.4536C61.5895 22.3047 61.6487 22.162 61.7539 22.0567C61.8592 21.9515 62.0019 21.8923 62.1508 21.8923C62.2996 21.8923 62.4424 21.9515 62.5477 22.0567C62.6529 22.162 62.712 22.3047 62.712 22.4536Z" fill="#07183D"/>
<path d="M67.6805 23.3689C67.0095 25.1519 65.6099 26.275 64.5542 25.8777C63.4981 25.4806 63.1855 23.7131 63.8564 21.93C64.5272 20.1472 65.927 19.0238 66.9828 19.4209C68.0383 19.8181 68.3511 21.5859 67.6805 23.3689Z" fill="white"/>
<path d="M65.6691 23.0148C65.6691 23.2635 65.5703 23.5021 65.3944 23.6779C65.2185 23.8538 64.98 23.9526 64.7313 23.9526C64.4826 23.9526 64.2441 23.8538 64.0682 23.6779C63.8924 23.5021 63.7936 23.2635 63.7936 23.0148C63.7936 22.7661 63.8924 22.5276 64.0682 22.3518C64.2441 22.1759 64.4826 22.0771 64.7313 22.0771C64.98 22.0771 65.2185 22.1759 65.3944 22.3518C65.5703 22.5276 65.6691 22.7661 65.6691 23.0148Z" fill="#07183D"/>
<path d="M58.5983 13.6494L62.9537 13.0319L63.1427 14.3655L58.7874 14.9829L58.5983 13.6494Z" fill="#703A2C"/>
<path d="M65.5311 16.7594L66.4807 15.8035L69.0232 18.3295L68.0736 19.2853L65.5311 16.7594Z" fill="#703A2C"/>
<path d="M46.1363 17.9334C46.1363 17.9334 47.1999 17.447 48.6168 18.7012C50.0339 19.9555 49.6208 21.727 47.9119 21.0455C46.2027 20.3642 47.636 19.7181 47.636 19.7181L46.9171 19.3028L48.1572 19.7927C48.1572 19.7927 46.7646 20.3712 47.8994 20.8719C49.0344 21.3719 49.7227 19.9756 48.5338 18.8389C47.3447 17.7016 46.1363 17.9334 46.1363 17.9334ZM63.3143 23.1831L62.9083 26.3828C62.9083 26.3828 63.8921 26.1817 63.801 27.4612L61.5896 26.9128C61.5896 26.9128 61.6861 25.7047 62.15 26.4409C62.15 26.4409 61.8346 26.1178 61.8802 26.8122L63.6993 27.1869C63.6993 27.1869 63.4269 26.4061 62.5925 26.4528L63.3143 23.1831ZM55.9316 24.6708L53 28.7544L50.9241 28.7267C50.9241 28.7267 51.3105 23.1337 53.6538 22.8348L54.6375 23.1461L55.9316 24.6708Z" fill="#07183D"/>
<path d="M56.7439 26.5864C56.7439 26.5864 55.6691 22.0431 53.2763 22.8427C50.8839 23.642 50.7472 29.1225 50.7472 29.1225C50.7472 29.1225 52.5228 28.4556 53.9686 29.167C53.9686 29.167 53.6663 28.3742 51.0442 28.5375C51.0442 28.5375 51.6089 23.7403 53.3777 23.0786C55.1466 22.4169 56.7439 26.5864 56.7439 26.5864Z" fill="#07183D"/>
<path d="M55.3314 25.0917L51.9316 24.9205C51.9316 24.9205 53.1085 21.4151 55.6233 24.432L55.3314 25.0917Z" fill="white"/>
<path d="M52.1139 28.4998L51.128 28.6659C51.128 28.6659 51.4994 26.0192 52.1139 28.4998Z" fill="#FF487C"/>
<path d="M72.0189 37.3905L71.0463 37.248L71.1039 36.9162L72.2339 37.1447L72.0189 37.3905Z" fill="#07183D"/>
<path d="M59.2989 61.8958H60.3092V72.5042H59.2989V61.8958Z" fill="#003FBC"/>
<path d="M75.9619 50.074L76.8058 38.3343L77.8134 38.4068L76.9694 50.1465L75.9619 50.074Z" fill="#003FBC"/>
<path d="M46.828 36.3736L78.5408 37.5189L60.8602 64.3816L26.4533 58.8248L46.828 36.3736Z" fill="#84AAD8"/>
<path d="M32.6625 52.3004L32.6999 51.9656L66.4594 55.7327L66.4221 56.0675L32.6625 52.3004Z" fill="white"/>
<path d="M75.0988 42.9062L42.0574 41.543L42.3586 41.2183L75.1125 42.5697L75.0988 42.9062Z" fill="white"/>
<path d="M48.0769 53.779L55.8193 41.859L56.1018 42.0425L48.3594 53.9625L48.0769 53.779Z" fill="white"/>
<path d="M61.1024 64.9323L26.3727 59.3234L26.5338 58.3261L60.618 63.8306L78.1186 37.2411L78.9625 37.7967L61.1024 64.9323Z" fill="#003FBC"/>
<path d="M35.2068 49.3442L35.2139 49.0074L70.0841 49.733L70.0771 50.0698L35.2068 49.3442Z" fill="#003FBC"/>
<path d="M35.2076 47.7976L35.2141 47.4609L70.1973 48.1363L70.1908 48.473L35.2076 47.7976Z" fill="#003FBC"/>
<path d="M35.2059 45.734L35.214 45.3972L70.3307 46.2438L70.3225 46.5806L35.2059 45.734Z" fill="#003FBC"/>
<path d="M35.2107 44.0954L35.2137 43.7587L70.3316 44.0677L70.3287 44.4045L35.2107 44.0954Z" fill="#003FBC"/>
<path d="M68.3777 49.8536L68.9672 42.1387L69.3027 42.1644L68.7131 49.8792L68.3777 49.8536Z" fill="#003FBC"/>
<path d="M66.1497 42.1576L66.4864 42.1522L66.6107 49.8235L66.274 49.8289L66.1497 42.1576Z" fill="#003FBC"/>
<path d="M36.9532 42.1639L37.2894 42.1426L37.7372 49.2136L37.401 49.2349L36.9532 42.1639Z" fill="#003FBC"/>
<path d="M40.4297 49.2241L40.4729 42.1533L40.8098 42.1553L40.7666 49.2261L40.4297 49.2241Z" fill="#003FBC"/>
<path d="M43.4612 49.3508L43.5039 42.1541L43.8406 42.1561L43.7979 49.3528L43.4612 49.3508Z" fill="#003FBC"/>
<path d="M45.7042 49.3841L46.2096 42.1408L46.5456 42.1642L46.0403 49.4075L45.7042 49.3841Z" fill="#003FBC"/>
<path d="M48.5505 49.4492L48.8575 42.1463L49.1939 42.1604L48.887 49.4633L48.5505 49.4492Z" fill="#003FBC"/>
<path d="M51.1644 49.338L51.7413 42.141L52.0771 42.168L51.5002 49.3649L51.1644 49.338Z" fill="#003FBC"/>
<path d="M53.7748 42.1558L54.1116 42.15L54.238 49.5005L53.9012 49.5063L53.7748 42.1558Z" fill="#003FBC"/>
<path d="M56.4717 49.6177L56.5943 42.1501L56.9311 42.1556L56.8086 49.6232L56.4717 49.6177Z" fill="#003FBC"/>
<path d="M59.1212 49.6766L59.1658 42.1539L59.5025 42.1559L59.4579 49.6786L59.1212 49.6766Z" fill="#003FBC"/>
<path d="M61.9827 42.1545H62.3194V49.6772H61.9827V42.1545Z" fill="#003FBC"/>
<path d="M63.7347 42.5008H64.0714V50.1248H63.7347V42.5008Z" fill="#003FBC"/>
<path d="M38.7471 42.1577L39.0838 42.1477L39.2949 49.2508L38.9581 49.2608L38.7471 42.1577Z" fill="#003FBC"/>
<path d="M42.114 49.2556L42.1538 42.1525L42.4907 42.1544L42.4509 49.2574L42.114 49.2556Z" fill="#003FBC"/>
<path d="M70.4009 50.1295L69.7292 50.0822L70.265 42.4914H35.5461V49.1764H34.8725V41.8176H70.9881L70.4009 50.1295ZM80 36.598C80 36.9552 79.8581 37.2978 79.6055 37.5505C79.3528 37.8031 79.0102 37.945 78.653 37.945C78.2957 37.945 77.9531 37.8031 77.7005 37.5505C77.4478 37.2978 77.3059 36.9552 77.3059 36.598C77.3059 36.2407 77.4478 35.8981 77.7005 35.6455C77.9531 35.3928 78.2957 35.2509 78.653 35.2509C79.0102 35.2509 79.3528 35.3928 79.6055 35.6455C79.8581 35.8981 80 36.2407 80 36.598Z" fill="#FFB510"/>
<path d="M79.4058 38.9998L79.3245 39.3334C79.2779 39.5495 79.1822 39.8741 79.0484 40.2805C78.8983 40.678 78.717 41.1652 78.4154 41.6788C78.1208 42.1936 77.7276 42.7461 77.2026 43.2575C76.6786 43.7672 76.0289 44.2406 75.2709 44.5931C74.5145 44.9463 73.6684 45.21 72.7748 45.3533C70.985 45.6536 69.042 45.5536 67.1501 45.2597C65.2545 44.9628 63.3973 44.4725 61.6892 43.9245C59.9798 43.3778 58.4176 42.7711 57.0956 42.2152C54.4506 41.1003 52.7679 40.1863 52.7679 40.1863C52.7679 40.1863 54.4608 41.0817 57.1158 42.1664C58.4428 42.7073 60.0097 43.2961 61.7214 43.8227C63.4315 44.3505 65.2883 44.8186 67.1753 45.0928C69.0586 45.3647 70.9845 45.4403 72.7356 45.1261C73.6104 44.9763 74.4309 44.7094 75.1587 44.3597C75.8881 44.0108 76.5065 43.5486 77.0033 43.055C77.5009 42.5595 77.8714 42.0264 78.149 41.5288C78.4336 41.033 78.6026 40.5603 78.7437 40.1755C78.8668 39.7863 78.9553 39.4792 79.0006 39.2561L79.0784 38.9216L79.4058 38.9998Z" fill="#07183D"/>
<path d="M78.2403 40.5711C78.0725 40.8711 77.8002 41.1823 77.5711 41.4347C76.423 42.6994 74.9847 43.4723 73.3544 43.9405C71.32 44.5247 69.1464 44.4705 67.0678 44.1817C64.9857 43.8925 62.9446 43.3895 60.9469 42.7384C60.0491 42.4462 59.1601 42.1274 58.2811 41.7827C56.0674 40.9138 54.6575 40.1862 54.6575 40.1862C54.6575 40.1862 56.0774 40.895 58.3 41.7334C58.8564 41.9406 59.4608 42.1608 60.1068 42.373C62.1964 43.0597 64.3342 43.6425 66.5139 43.9578C67.1947 44.0562 67.8797 44.1275 68.5666 44.1642C69.3282 44.205 70.0932 44.1984 70.8527 44.1264C71.0042 44.112 71.1553 44.0947 71.3061 44.0744C73.0602 43.8367 74.9308 43.3741 76.3111 42.2039C76.9416 41.6695 77.4825 41.0355 77.9699 40.3702C77.97 40.3705 78.235 40.567 78.2403 40.5711Z" fill="#07183D"/>
<path d="M53.1496 7.34999L55.8363 10.5403L52.4611 8.08968L53.1496 7.34999Z" fill="#703A2C"/>
<path d="M55.2022 7.4575L55.1206 11.5869L54.1971 7.5611L55.2022 7.4575ZM22.4183 64.7284L16.5889 72.1003L17.2549 72.9172L19.2755 72.7167L20.2733 70.7769L23.1358 64.9809L22.4183 64.7284Z" fill="#703A2C"/>
<path d="M32.0603 72.6425L15.7271 73.1914L16.5891 72.1002L19.2189 72.2216C19.3236 71.3898 19.8083 70.9786 20.2735 70.7767C20.748 70.5714 21.1996 70.5814 21.1996 70.5814L20.061 72.0531C26.7563 68.6855 32.0603 72.6425 32.0603 72.6425Z" fill="#FFB510"/>
<path d="M15.7203 73.0203L32.0539 72.4776L32.0651 72.8142L15.7315 73.3569L15.7203 73.0203Z" fill="#07183D"/>
<path d="M29.9891 65.2234L24.1526 72.5956L24.243 73.2848H26.9712L27.847 71.2689L30.703 65.4759L29.9891 65.2234Z" fill="#703A2C"/>
<path d="M39.6273 73.1375L23.2941 73.6834L24.1528 72.5956L26.7898 72.7167C26.8941 71.8816 27.3823 71.4708 27.8472 71.2689C28.322 71.0667 28.7041 71.2759 28.7041 71.2759L27.6317 72.5483C34.3266 69.1805 39.6273 73.1375 39.6273 73.1375Z" fill="#FFB510"/>
<path d="M23.2874 73.5141L39.6208 72.9714L39.632 73.308L23.2985 73.8507L23.2874 73.5141Z" fill="#07183D"/>
<path d="M5.69843 52.0978C5.69843 52.0978 0.460926 56.8781 4.64686 61.0137C4.64686 61.0137 1.25436 62.6527 1.69015 63.2922C2.12593 63.9316 4.89936 61.5755 4.89936 61.5755C4.89936 61.5755 3.1803 67.1647 4.39874 66.6337C4.8014 66.4581 5.85968 61.6406 5.85968 61.6406C5.85968 61.6406 7.22577 67.0723 7.86061 66.9047C8.64593 66.6967 7.23436 62.0728 7.23436 62.0728C7.23436 62.0728 10.4551 65.3917 10.927 64.7439C11.2941 64.2397 7.28265 61.1394 7.28265 61.1394C7.28265 61.1394 9.4178 60.9525 9.55561 60.2248C9.69358 59.497 6.20655 60.0353 6.20655 60.0353C6.20655 60.0353 4.32015 54.8902 7.21561 53.5855L5.69843 52.0978Z" fill="#703A2C"/>
<path d="M9.44597 49.7884L4.20972 51.325L7.56612 56.8208L11.9385 53.9859L10.8539 50.1058L9.44597 49.7884Z" fill="#FF487C"/>
<path d="M37.6506 56.0044C37.6506 56.0044 38.2399 52.4263 36.7666 50.3214C36.7666 50.3214 38.6609 50.7995 39.6291 49.508C40.5974 48.2164 37.1191 48.932 37.1191 48.932C37.1191 48.932 40.3447 35.3352 36.3875 32.8092L17.4442 40.2602L17.0231 51.1633L20.3908 56.4253L37.6506 56.0044Z" fill="#703A2C"/>
<path d="M28.3894 60.1719L32.6831 66.7388L24.7689 67.2439L23.085 63.7078L23.7871 66.823L17.781 66.5703L18.5594 63.7078C18.5594 63.7078 10.3719 62.8041 11.5506 57.5309L28.3894 60.1719Z" fill="#84AAD8"/>
<path d="M46.9851 43.4148L46.3753 37.5189L49.235 38.3711L48.8903 43.928L46.9851 43.4148Z" fill="#07183D"/>
<path d="M54.2747 36.3306C53.562 39.2684 49.7694 40.8692 45.8045 39.907C41.8395 38.9447 39.203 35.783 39.9159 32.8453C40.6289 29.9078 44.4216 28.3066 48.3866 29.2692C52.3514 30.2314 54.9878 33.3931 54.2747 36.3306Z" fill="#003FBC"/>
<path d="M50.953 41.3466C49.2691 41.2153 48.8481 42.4914 48.8481 42.4914C48.8481 42.4914 44.8911 40.6391 44.4702 41.6495C44.0494 42.6597 46.1541 43.9259 46.1541 43.9259C44.4939 51.1972 40.6006 54.0764 36.4013 54.8477L34.5703 56.0794L36.7483 57.6731C48.2556 57.4441 47.5853 45.1855 47.5853 45.1855C54.5734 49.0584 52.6369 41.4811 50.953 41.3466Z" fill="#703A2C"/>
<path d="M49.3791 43.2787C49.2162 43.2787 49.042 43.2686 48.8569 43.2481L48.8938 42.9134C49.7302 43.0051 50.2863 42.8798 50.547 42.5412C50.8789 42.1098 50.6302 41.4511 50.6277 41.4445L50.9419 41.3233C50.9552 41.3573 51.2603 42.1669 50.8141 42.7467C50.5414 43.1005 50.06 43.2787 49.3791 43.2787ZM50.5097 44.4087C50.2152 44.4087 49.883 44.3536 49.5145 44.243L49.6112 43.9205C50.3959 44.1558 50.9737 44.1175 51.3294 43.8073C51.903 43.3064 51.7422 42.235 51.7406 42.2242L52.073 42.1716C52.0812 42.2228 52.2655 43.4355 51.5519 44.06C51.2864 44.2923 50.9377 44.4087 50.5097 44.4087ZM50.6287 45.5658C50.2798 45.5658 49.9042 45.4917 49.5042 45.3434L49.6214 45.0276C50.3127 45.2839 50.9116 45.295 51.4027 45.0616C52.0905 44.7342 52.335 44.0348 52.3373 44.0276L52.6561 44.1361C52.6445 44.1705 52.362 44.978 51.5473 45.3655C51.2667 45.4991 50.9598 45.5658 50.6287 45.5658Z" fill="#07183D"/>
<path d="M31.9255 62.7819C31.9255 62.7819 22.1592 63.3712 10.4562 58.4881C10.4562 58.4881 10.2878 53.5208 14.4977 52.2578L21.7955 51.7022C21.7955 51.7022 29.5108 56.1142 36.4012 54.8476L36.7483 57.6731L37.1186 60.677L31.4205 58.2355C31.4205 58.2355 33.3567 59.4983 31.9255 62.7819Z" fill="#FF487C"/>
<path d="M23.4221 49.8161C23.4221 49.8161 24.3482 54.3625 21.9908 55.2045C19.6333 56.0464 18.7915 52.5945 18.7915 52.5945C18.7915 52.5945 13.1505 56.3958 10.2036 55.337C7.25692 54.2783 9.36176 50.4897 9.36176 50.4897C9.36176 50.4897 7.1727 53.3522 6.33083 52.1736C5.4888 50.995 9.10911 46.6167 9.10911 46.6167L7.00458 42.8281C7.00458 42.8281 0.353327 41.7338 0.016452 39.8814C-0.320423 38.0292 4.64708 36.177 4.64708 36.177C4.64708 36.177 0.269108 34.83 0.942546 33.7355C1.61614 32.6409 3.72098 32.9777 3.72098 32.9777C3.72098 32.9777 1.19505 24.6427 4.22598 22.9588C7.25692 21.2748 12.4266 25.9897 12.4266 25.9897C12.4266 25.9897 13.3188 17.4861 18.0336 16.8127C22.7485 16.1391 27.5475 22.2009 27.5475 22.2009C27.5475 22.2009 29.3157 17.9072 30.9152 17.9912C32.5149 18.0755 32.3465 22.1167 32.3465 22.1167C32.3465 22.1167 33.3568 19.5067 36.2194 20.1805C39.0819 20.8539 34.1988 31.378 34.1988 31.378L26.6215 36.1419C26.6215 36.1419 29.484 42.2388 28.7261 42.6597C27.9685 43.0808 27.4633 41.7336 27.4633 41.7336C27.4633 41.7336 27.5475 45.9431 24.8535 45.9431C24.8535 45.9431 23.2116 43.2491 20.5174 44.4277C17.8232 45.6064 18.9599 50.2792 23.4221 49.8161Z" fill="#07183D"/>
<path opacity="0.1" d="M11.0339 33.0214C9.79703 33.3589 8.31469 33.6264 7.00766 33.3297C5.68328 33.0291 4.90907 31.8325 5.2186 30.9111C5.6925 29.5009 9.10953 30.355 10.0784 30.9684C10.2845 31.0989 10.4794 31.2761 10.4306 31.4808C10.2984 32.0334 9.02078 31.4364 8.68688 31.2912C7.34735 30.7087 6.17953 29.9891 5.44922 28.9917C4.6125 27.8494 4.88219 26.2478 6.94953 25.9958C9.10344 25.7331 10.5991 27.2201 10.9188 28.5222C10.9506 28.6525 11.6008 28.7323 11.5653 28.5883C11.2589 27.3392 10.1473 26.3241 8.4175 25.9095C7.15203 25.6061 5.51516 25.7095 4.72016 26.5419C3.60094 27.7137 4.89641 29.2814 6.04063 30.1586C6.92297 30.835 8.15828 31.4161 9.35953 31.7787C9.90188 31.9425 11.392 32.0776 11.0503 31.3422C10.8031 30.8095 9.70235 30.4895 9.03953 30.3016C7.60344 29.8936 4.30907 29.5501 4.50766 31.2855C4.80703 33.8998 8.84 33.9592 11.5628 33.2162C11.7955 33.1528 11.2005 32.9761 11.0339 33.0214ZM17.8588 29.0792C17.245 29.6258 16.2972 29.6142 15.5456 29.5053C14.8359 29.4022 14.3317 28.9745 13.9314 28.365C13.28 27.3725 13.2033 26.0006 13.5605 24.8787C14.0453 23.3559 15.4281 22.6911 16.8338 23.3081C17.6022 23.6453 18.0875 24.3359 18.3198 25.1609C18.4698 25.6926 18.6108 27.7769 17.5398 27.1111C16.0447 26.182 15.8089 23.7295 15.9731 22.1145C16.1464 20.4034 16.9417 18.8908 18.3995 18.0795C20.25 17.0498 21.6216 18.9244 21.6847 20.7639C21.7097 21.5016 21.5128 22.2233 21.1655 22.8545C21.0339 23.093 19.9677 24.7895 19.727 24.207C19.6253 23.9603 20 23.5695 20.1263 23.43C20.4219 23.103 20.8192 22.9564 21.2259 22.8555C22.1166 22.6342 23.0217 22.9244 23.5228 23.7484C24.2711 24.9784 23.2484 26.8703 21.9484 26.9944C21.6313 27.0245 21.6517 27.2526 21.9692 27.2223C23.0894 27.1156 23.9691 26.3198 24.2363 25.152C24.5122 23.947 23.7147 22.8158 22.5872 22.6176C21.4605 22.4197 20.1959 22.6747 19.4306 23.623C18.6986 24.5305 19.9075 24.8567 20.5103 24.378C21.3889 23.6806 21.9989 22.5083 22.1794 21.3753C22.3994 19.9978 21.8272 18.1716 20.4677 17.6925C19.4886 17.3476 18.405 17.6258 17.565 18.2283C16.3928 19.0695 15.7791 20.2559 15.503 21.7117C15.1961 23.3278 15.4197 25.162 16.352 26.5092C16.8923 27.2903 17.9569 27.9869 18.7138 27.0823C19.4669 26.182 18.7608 24.4067 18.0884 23.7041C17.2988 22.8784 16.0178 22.6517 14.9723 22.9275C12.9817 23.4533 12.4252 26.0287 13.1031 27.8442C13.4578 28.7942 14.1816 29.5231 15.1384 29.7008C16.1483 29.8886 17.5014 29.8875 18.3327 29.1472C18.4839 29.0122 17.9683 28.9812 17.8588 29.0792ZM26.6436 34.3283C25.8884 34.3256 25.18 34.5119 24.4352 34.5973C23.243 34.7339 22.4416 33.3822 22.1073 32.4222C21.5695 30.8769 22.0898 29.1211 23.2227 27.9886C24.4025 26.8087 26.1206 26.7431 27.6531 27.1106C28.3023 27.2664 28.9311 27.5531 29.3705 28.0673C29.595 28.3301 29.6828 28.6595 29.7106 28.9958C29.7306 29.2397 29.7873 29.7211 29.6714 29.8233C28.7313 29.4181 27.9477 27.8772 27.852 26.9183C27.7681 26.0753 28.0431 25.2261 28.5363 24.55C29.5106 23.2133 31.0836 24.0601 31.8642 25.1191C32.1509 25.5078 32.227 25.9494 32.2403 26.4158C32.2478 26.6833 32.1286 26.9489 31.952 27.1444C31.7264 27.3945 31.4242 26.7431 31.3984 26.682C31.1123 25.9944 31.3172 25.1091 31.5947 24.4587C32.1328 23.1976 33.7588 22.7914 34.6331 23.9208C35.1673 24.6109 35.0588 25.5764 34.6017 26.2614C34.5067 26.4037 35.142 26.4486 35.2548 26.2795C36.0634 25.0683 35.5659 23.4911 34.1761 23.0251C32.7503 22.5469 31.2259 23.5058 30.7847 24.8583C30.448 25.8905 30.5031 27.5859 31.9619 27.4659C32.4997 27.4217 32.777 27.0283 32.8927 26.5403C33.0981 25.6745 32.4461 24.742 31.8048 24.2451C30.6534 23.3536 29.0988 23.2683 28.0408 24.347C27.0605 25.3469 26.9311 27.0127 27.5705 28.2077C27.9641 28.9436 28.7395 30.2462 29.7397 30.105C30.8616 29.9467 30.3333 28.2508 29.8113 27.7255C28.8677 26.7758 27.1681 26.6186 25.9084 26.6428C24.385 26.672 23.0155 27.3005 22.0855 28.5258C21.0484 29.8919 20.9998 31.7741 21.7747 33.2626C22.1861 34.0537 22.8472 34.6691 23.7263 34.8509C24.6291 35.0375 25.5828 34.5989 26.4859 34.6023C26.773 34.603 27.1038 34.3302 26.6436 34.3283ZM15.0458 40.2167C13.5383 40.105 12.297 41.0901 11.3258 42.1367C10.2745 43.27 9.33844 44.7491 9.01703 46.2783C8.70922 47.7436 8.89469 49.537 10.1848 50.4787C11.2805 51.2786 13.0253 51.2822 14.1291 50.5094C15.4648 49.5739 15.9005 48.0325 15.7656 46.4658C15.6698 45.3539 14.5413 45.4434 13.9706 46.1687C13.1198 47.2511 13.1422 49.2383 13.3859 50.5186C13.5858 51.5711 14.0763 53.0566 15.3714 53.1028C16.975 53.1601 18.2002 50.758 16.872 49.6523C16.7917 49.5851 16.2517 49.4172 16.2413 49.6256C16.1881 50.6889 17.2566 51.3395 18.1806 51.4914C19.2222 51.6631 19.78 50.7261 20.1069 49.8947C20.165 49.7462 19.5198 49.5931 19.4406 49.7939C19.2692 50.2303 19.0713 50.6294 18.7425 50.967C17.9744 51.7562 16.8692 50.4941 16.9075 49.7262C16.697 49.7173 16.487 49.7087 16.2769 49.6997C17.0394 50.335 16.7958 51.4078 16.2959 52.1287C16.0847 52.4322 15.5589 52.9811 15.1394 52.7708C14.5614 52.4814 14.322 51.6328 14.1591 51.07C13.7973 49.8216 13.8684 48.3412 14.2358 47.1055C14.333 46.7801 14.4912 46.4763 14.7019 46.21C14.9388 45.9086 14.9595 45.8183 15.0581 46.1291C15.2177 46.6319 15.1102 47.2586 15.0628 47.7734C14.8845 49.7155 12.8327 51.4742 10.9028 50.5005C9.52782 49.8069 9.45282 47.8848 9.64875 46.5714C9.8461 45.2487 10.5992 44.0364 11.3891 42.9866C12.245 41.8492 13.6288 40.3851 15.1841 40.5001C15.643 40.5345 15.3303 40.238 15.0458 40.2167ZM9.60875 41.9884C7.68 42.3881 5.17641 42.7412 3.88797 40.8798C3.4561 40.2559 3.2611 39.4392 3.95907 38.9512C4.645 38.4711 5.73063 38.6506 6.45532 38.9231C6.79297 39.0503 7.09391 39.2606 7.3225 39.5383C7.43657 39.6767 7.62672 39.9484 7.1175 39.6945C6.89953 39.5856 6.74235 39.3787 6.60016 39.1881C6.11172 38.5341 5.90063 37.5903 5.97047 36.7853C6.17125 34.4631 9.79953 35.1441 11.1759 35.6912C11.3352 35.7547 11.9733 35.6145 11.6448 35.4839C9.91891 34.7973 6.86172 34.285 5.58266 36.0497C4.94438 36.93 5.37719 38.2945 5.86125 39.1406C6.33188 39.9634 7.19922 40.2337 8.05985 39.8839C8.12063 39.8592 8.17172 39.8167 8.14172 39.7497C7.68735 38.7289 6.31985 38.4387 5.3161 38.4033C4.52703 38.375 3.09391 38.5387 2.8561 39.4908C2.50047 40.9139 4.16203 42.0669 5.32297 42.3831C6.82532 42.7919 8.46407 42.5181 9.95688 42.2087C10.3813 42.1209 9.80375 41.948 9.60875 41.9884Z" fill="white"/>
<path d="M19.7442 46.4136C19.7442 46.4136 20.5617 45.5772 22.3348 46.2386C24.1081 46.8999 24.3592 48.7013 22.5195 48.6797C20.6798 48.658 21.7848 47.5397 21.7848 47.5397L20.9648 47.4108L22.2981 47.4219C22.2981 47.4219 21.2062 48.4624 22.4455 48.5217C23.6842 48.5806 23.8248 47.0299 22.3067 46.3964C20.7883 45.7628 19.7442 46.4136 19.7442 46.4136Z" fill="#07183D"/>
<path d="M30.5783 46.4483C30.5783 46.4483 34.0722 46.322 35.6299 49.0161C35.6299 49.0161 37.4522 39.3341 35.6299 38.3658C33.8077 37.3978 30.5783 46.4483 30.5783 46.4483Z" fill="white"/>
<path d="M36.4011 44.2383C36.4011 45.715 35.8986 46.9116 35.2786 46.9116C34.6589 46.9116 34.1564 45.7152 34.1564 44.2383C34.1564 42.7623 34.6589 41.5653 35.2786 41.5653C35.8986 41.5653 36.4011 42.7623 36.4011 44.2383ZM31.4611 49.2498L30.9619 49.0736L30.3594 48.635L30.0359 48.1261L29.8941 47.5028L29.5938 47.7862L28.9981 48.4439L28.6058 49.3347L28.3602 49.9839L28.2742 51.2553L28.445 52.2387L28.7284 52.8464L29.1642 53.2333L29.4013 53.3476L31.4611 49.2498Z" fill="#07183D"/>
<path d="M28.2352 50.347C28.1942 50.6891 28.1872 51.0633 28.2256 51.4711C28.4941 54.3261 30.6192 53.2119 30.6192 53.2119C30.6192 53.2119 28.6335 54.0686 28.4135 51.4702C28.1935 48.8717 29.8652 47.6647 29.8652 47.6647C30.1966 49.9262 32.8517 49.3425 32.8517 49.3425C32.8517 49.3425 30.3364 49.6687 29.9214 47.3978C29.9214 47.3978 28.4778 48.2931 28.2352 50.347Z" fill="#07183D"/>
<path d="M30.2239 47.7073C30.2239 47.7073 29.9097 47.3841 29.3125 47.4791C29.3125 47.4791 29.8894 47.1522 30.2572 47.4647L30.2239 47.7073Z" fill="#07183D"/>
<path d="M29.8805 47.8148C29.8805 47.8148 29.9888 48.9517 30.9244 49.188C30.9244 49.188 30.6158 49.9575 30.2444 49.7913C29.8731 49.625 30.0074 49.0163 30.0074 49.0163C30.0074 49.0163 29.7005 49.6109 29.2236 49.388C28.7472 49.165 29.8805 47.8148 29.8805 47.8148Z" fill="white"/>
<path d="M28.4114 50.5772C28.4114 50.5772 28.2962 52.5345 28.9741 52.978C28.9741 52.978 29.4226 50.6856 28.4114 50.5772Z" fill="#FF487C"/>
<path d="M7.00457 48.6795L38.4083 35.4614L35.9246 28.0525L4.0155 42.5334L7.00457 48.6795Z" fill="#FFB510"/>
<path d="M4.89346 44.6308L4.40393 43.6925L36.3836 29.158L36.6772 30.1342L4.89346 44.6308ZM6.46221 47.8587L6.03987 46.9416L37.7832 33.3794L38.0786 34.3519L6.46221 47.8587Z" fill="#003FBC"/>
<path d="M33.1275 36.2439L33.8869 34.741L38.9683 37.3087L38.2089 38.8116L33.1275 36.2439Z" fill="#07183D"/>
</g>
<path d="M127.932 51V33.5455H132.773V51H127.932ZM130.364 31.2955C129.644 31.2955 129.027 31.0568 128.511 30.5795C128.004 30.0947 127.75 29.5152 127.75 28.8409C127.75 28.1742 128.004 27.6023 128.511 27.125C129.027 26.6402 129.644 26.3977 130.364 26.3977C131.083 26.3977 131.697 26.6402 132.205 27.125C132.72 27.6023 132.977 28.1742 132.977 28.8409C132.977 29.5152 132.72 30.0947 132.205 30.5795C131.697 31.0568 131.083 31.2955 130.364 31.2955ZM142.771 40.9091V51H137.931V33.5455H142.544V36.625H142.749C143.135 35.6098 143.783 34.8068 144.692 34.2159C145.601 33.6174 146.703 33.3182 147.999 33.3182C149.211 33.3182 150.268 33.5833 151.169 34.1136C152.071 34.6439 152.771 35.4015 153.271 36.3864C153.771 37.3636 154.021 38.5303 154.021 39.8864V51H149.181V40.75C149.188 39.6818 148.915 38.8485 148.362 38.25C147.809 37.6439 147.048 37.3409 146.078 37.3409C145.427 37.3409 144.851 37.4811 144.351 37.7614C143.859 38.0417 143.472 38.4508 143.192 38.9886C142.919 39.5189 142.779 40.1591 142.771 40.9091ZM166.98 57.9091C165.412 57.9091 164.068 57.6932 162.946 57.2614C161.833 56.8371 160.946 56.2576 160.287 55.5227C159.628 54.7879 159.2 53.9621 159.003 53.0455L163.48 52.4432C163.617 52.7917 163.833 53.1174 164.128 53.4205C164.424 53.7235 164.814 53.9659 165.299 54.1477C165.791 54.3371 166.39 54.4318 167.094 54.4318C168.147 54.4318 169.015 54.1742 169.696 53.6591C170.386 53.1515 170.73 52.2992 170.73 51.1023V47.9091H170.526C170.314 48.3939 169.996 48.8523 169.571 49.2841C169.147 49.7159 168.602 50.0682 167.935 50.3409C167.268 50.6136 166.473 50.75 165.549 50.75C164.238 50.75 163.045 50.447 161.969 49.8409C160.901 49.2273 160.049 48.2917 159.412 47.0341C158.783 45.7689 158.469 44.1705 158.469 42.2386C158.469 40.2614 158.791 38.6098 159.435 37.2841C160.079 35.9583 160.935 34.9659 162.003 34.3068C163.079 33.6477 164.257 33.3182 165.537 33.3182C166.515 33.3182 167.333 33.4848 167.992 33.8182C168.651 34.1439 169.181 34.553 169.583 35.0455C169.992 35.5303 170.306 36.0076 170.526 36.4773H170.708V33.5455H175.515V51.1705C175.515 52.6553 175.151 53.8977 174.424 54.8977C173.696 55.8977 172.689 56.6477 171.401 57.1477C170.121 57.6553 168.647 57.9091 166.98 57.9091ZM167.083 47.1136C167.863 47.1136 168.522 46.9205 169.06 46.5341C169.605 46.1402 170.022 45.5795 170.31 44.8523C170.605 44.1174 170.753 43.2386 170.753 42.2159C170.753 41.1932 170.609 40.3068 170.321 39.5568C170.033 38.7992 169.617 38.2121 169.071 37.7955C168.526 37.3788 167.863 37.1705 167.083 37.1705C166.287 37.1705 165.617 37.3864 165.071 37.8182C164.526 38.2424 164.113 38.8333 163.833 39.5909C163.552 40.3485 163.412 41.2235 163.412 42.2159C163.412 43.2235 163.552 44.0947 163.833 44.8295C164.121 45.5568 164.533 46.1212 165.071 46.5227C165.617 46.9167 166.287 47.1136 167.083 47.1136Z" fill="white"/>
<path d="M228.191 51.3409C226.426 51.3409 224.899 50.9659 223.611 50.2159C222.331 49.4583 221.342 48.4053 220.645 47.0568C219.948 45.7008 219.6 44.1288 219.6 42.3409C219.6 40.5379 219.948 38.9621 220.645 37.6136C221.342 36.2576 222.331 35.2045 223.611 34.4545C224.899 33.697 226.426 33.3182 228.191 33.3182C229.956 33.3182 231.479 33.697 232.759 34.4545C234.047 35.2045 235.039 36.2576 235.736 37.6136C236.433 38.9621 236.782 40.5379 236.782 42.3409C236.782 44.1288 236.433 45.7008 235.736 47.0568C235.039 48.4053 234.047 49.4583 232.759 50.2159C231.479 50.9659 229.956 51.3409 228.191 51.3409ZM228.213 47.5909C229.016 47.5909 229.687 47.3636 230.225 46.9091C230.763 46.447 231.168 45.8182 231.441 45.0227C231.721 44.2273 231.861 43.322 231.861 42.3068C231.861 41.2917 231.721 40.3864 231.441 39.5909C231.168 38.7955 230.763 38.1667 230.225 37.7045C229.687 37.2424 229.016 37.0114 228.213 37.0114C227.403 37.0114 226.721 37.2424 226.168 37.7045C225.622 38.1667 225.21 38.7955 224.929 39.5909C224.657 40.3864 224.52 41.2917 224.52 42.3068C224.52 43.322 224.657 44.2273 224.929 45.0227C225.21 45.8182 225.622 46.447 226.168 46.9091C226.721 47.3636 227.403 47.5909 228.213 47.5909ZM246.05 40.9091V51H241.209V33.5455H245.823V36.625H246.028C246.414 35.6098 247.062 34.8068 247.971 34.2159C248.88 33.6174 249.982 33.3182 251.278 33.3182C252.49 33.3182 253.546 33.5833 254.448 34.1136C255.349 34.6439 256.05 35.4015 256.55 36.3864C257.05 37.3636 257.3 38.5303 257.3 39.8864V51H252.459V40.75C252.467 39.6818 252.194 38.8485 251.641 38.25C251.088 37.6439 250.327 37.3409 249.357 37.3409C248.706 37.3409 248.13 37.4811 247.63 37.7614C247.137 38.0417 246.751 38.4508 246.471 38.9886C246.198 39.5189 246.058 40.1591 246.05 40.9091ZM270.259 57.9091C268.691 57.9091 267.346 57.6932 266.225 57.2614C265.111 56.8371 264.225 56.2576 263.566 55.5227C262.907 54.7879 262.479 53.9621 262.282 53.0455L266.759 52.4432C266.896 52.7917 267.111 53.1174 267.407 53.4205C267.702 53.7235 268.093 53.9659 268.577 54.1477C269.07 54.3371 269.668 54.4318 270.373 54.4318C271.426 54.4318 272.293 54.1742 272.975 53.6591C273.665 53.1515 274.009 52.2992 274.009 51.1023V47.9091H273.805C273.593 48.3939 273.274 48.8523 272.85 49.2841C272.426 49.7159 271.88 50.0682 271.214 50.3409C270.547 50.6136 269.752 50.75 268.827 50.75C267.517 50.75 266.324 50.447 265.248 49.8409C264.18 49.2273 263.327 48.2917 262.691 47.0341C262.062 45.7689 261.748 44.1705 261.748 42.2386C261.748 40.2614 262.07 38.6098 262.714 37.2841C263.358 35.9583 264.214 34.9659 265.282 34.3068C266.358 33.6477 267.536 33.3182 268.816 33.3182C269.793 33.3182 270.611 33.4848 271.271 33.8182C271.93 34.1439 272.46 34.553 272.861 35.0455C273.271 35.5303 273.585 36.0076 273.805 36.4773H273.986V33.5455H278.793V51.1705C278.793 52.6553 278.43 53.8977 277.702 54.8977C276.975 55.8977 275.968 56.6477 274.68 57.1477C273.399 57.6553 271.926 57.9091 270.259 57.9091ZM270.361 47.1136C271.142 47.1136 271.801 46.9205 272.339 46.5341C272.884 46.1402 273.301 45.5795 273.589 44.8523C273.884 44.1174 274.032 43.2386 274.032 42.2159C274.032 41.1932 273.888 40.3068 273.6 39.5568C273.312 38.7992 272.896 38.2121 272.35 37.7955C271.805 37.3788 271.142 37.1705 270.361 37.1705C269.566 37.1705 268.896 37.3864 268.35 37.8182C267.805 38.2424 267.392 38.8333 267.111 39.5909C266.831 40.3485 266.691 41.2235 266.691 42.2159C266.691 43.2235 266.831 44.0947 267.111 44.8295C267.399 45.5568 267.812 46.1212 268.35 46.5227C268.896 46.9167 269.566 47.1136 270.361 47.1136Z" fill="white"/>
<g clip-path="url(#clip1_4_146)">
<path d="M106.52 57.8762C106.52 58.628 107.13 59.2375 107.882 59.2376L110.61 59.2425C111.361 59.2423 111.971 58.6328 111.971 57.881L111.974 51.0745L106.525 51.0716L106.52 57.8762ZM106.525 49.7102L111.971 49.7102C111.971 47.409 114.994 46.4047 117.634 44.2633L100.861 44.2632C103.503 46.4047 106.525 47.4109 106.525 49.7102ZM121.497 36.0943C121.544 29.3727 116.133 23.8855 109.412 23.8381L109.406 23.8381C102.647 23.7423 97.0907 29.1437 96.995 35.9024C96.9941 35.9664 96.9937 36.0303 96.9938 36.0943C96.8968 38.5923 97.7713 41.0308 99.4337 42.8979L119.057 42.8979C120.719 41.0308 121.594 38.5923 121.497 36.0943Z" fill="url(#paint0_linear_4_146)"/>
</g>
<g clip-path="url(#clip2_4_146)">
<path d="M199.52 57.8762C199.52 58.628 200.13 59.2375 200.882 59.2376L203.61 59.2425C204.361 59.2423 204.971 58.6328 204.971 57.881L204.974 51.0745L199.525 51.0716L199.52 57.8762ZM199.525 49.7102L204.971 49.7102C204.971 47.409 207.994 46.4047 210.634 44.2633L193.861 44.2632C196.503 46.4047 199.525 47.4109 199.525 49.7102ZM214.497 36.0943C214.544 29.3727 209.133 23.8855 202.412 23.8381L202.406 23.8381C195.647 23.7423 190.091 29.1437 189.995 35.9024C189.994 35.9664 189.994 36.0303 189.994 36.0943C189.897 38.5923 190.771 41.0308 192.434 42.8979L212.057 42.8979C213.719 41.0308 214.594 38.5923 214.497 36.0943Z" fill="#B50036"/>
</g>
<defs>
<linearGradient id="paint0_linear_4_146" x1="98.6441" y1="50.5638" x2="119.869" y2="29.3391" gradientUnits="userSpaceOnUse">
<stop stop-color="#B56D00"/>
<stop offset="1" stop-color="#00FF66"/>
</linearGradient>
<clipPath id="clip0_4_146">
<rect width="80" height="80" fill="white"/>
</clipPath>
<clipPath id="clip1_4_146">
<rect width="32" height="32" fill="white" transform="translate(88 40) rotate(-45)"/>
</clipPath>
<clipPath id="clip2_4_146">
<rect width="32" height="32" fill="white" transform="translate(181 40) rotate(-45)"/>
</clipPath>
</defs>
</svg>
