<svg width="275" height="86" viewBox="0 0 275 86" fill="none" xmlns="http://www.w3.org/2000/svg">
<mask id="path-1-outside-1_26_16" maskUnits="userSpaceOnUse" x="0" y="13" width="276" height="51" fill="black">
<rect fill="white" y="13" width="276" height="51"/>
<path d="M31.1364 29.5C31.2576 27.7879 30.803 26.4621 29.7727 25.5227C28.7576 24.5833 27.1515 24.1136 24.9545 24.1136C23.5 24.1136 22.2576 24.303 21.2273 24.6818C20.197 25.0455 19.3864 25.5606 18.7955 26.2273C18.2045 26.8788 17.8333 27.6364 17.6818 28.5C17.5455 29.1818 17.5833 29.7879 17.7955 30.3182C18.0076 30.8485 18.3788 31.3182 18.9091 31.7273C19.4545 32.1364 20.1288 32.4924 20.9318 32.7955C21.75 33.0985 22.6667 33.3636 23.6818 33.5909L27.5 34.5C29.7121 35 31.6288 35.6667 33.25 36.5C34.8864 37.3182 36.2121 38.3106 37.2273 39.4773C38.2424 40.6288 38.9394 41.9545 39.3182 43.4545C39.697 44.9545 39.7273 46.6364 39.4091 48.5C38.9242 51.4394 37.7652 53.9621 35.9318 56.0682C34.1136 58.1742 31.7349 59.7879 28.7955 60.9091C25.8712 62.0303 22.4697 62.5909 18.5909 62.5909C14.7121 62.5909 11.4167 62.0076 8.70455 60.8409C6.00758 59.6591 4.05303 57.8788 2.84091 55.5C1.62879 53.1212 1.30303 50.1212 1.86364 46.5H12.6136C12.447 48 12.6364 49.25 13.1818 50.25C13.7424 51.25 14.6061 52.0076 15.7727 52.5227C16.9394 53.0379 18.3485 53.2955 20 53.2955C21.5152 53.2955 22.8409 53.0909 23.9773 52.6818C25.1288 52.2727 26.0455 51.7045 26.7273 50.9773C27.4242 50.25 27.8485 49.4167 28 48.4773C28.1515 47.6136 28.0076 46.8636 27.5682 46.2273C27.1439 45.5909 26.4167 45.0379 25.3864 44.5682C24.3712 44.0985 23.0379 43.6742 21.3864 43.2955L16.7273 42.1591C12.8788 41.2197 9.96212 39.7197 7.97727 37.6591C6.00758 35.5985 5.31061 32.803 5.88636 29.2727C6.37121 26.3788 7.56818 23.8485 9.47727 21.6818C11.4015 19.5151 13.8333 17.8333 16.7727 16.6364C19.7273 15.4242 22.9773 14.8182 26.5227 14.8182C30.1288 14.8182 33.1591 15.4318 35.6136 16.6591C38.0833 17.8712 39.8636 19.5833 40.9545 21.7955C42.0606 23.9924 42.3788 26.5606 41.9091 29.5H31.1364ZM64.4009 15.4545L56.6736 62H45.4236L53.1509 15.4545H64.4009ZM102.046 30.6591C101.955 29.7045 101.743 28.8636 101.41 28.1364C101.076 27.3939 100.622 26.7652 100.046 26.25C99.4704 25.7348 98.7583 25.3485 97.9098 25.0909C97.0613 24.8182 96.0764 24.6818 94.9552 24.6818C92.7128 24.6818 90.637 25.2273 88.728 26.3182C86.8189 27.4091 85.2052 29 83.887 31.0909C82.5689 33.1667 81.6674 35.6894 81.1825 38.6591C80.6977 41.6439 80.6825 44.1894 81.137 46.2955C81.6067 48.4015 82.5461 50.0076 83.9552 51.1136C85.3643 52.2197 87.228 52.7727 89.5461 52.7727C91.6219 52.7727 93.4552 52.4394 95.0461 51.7727C96.637 51.0909 97.9249 50.1288 98.9098 48.8864C99.9098 47.6439 100.539 46.1818 100.796 44.5L102.864 44.75H91.5461L92.9098 36.5455H112.955L111.933 42.7045C111.251 46.8712 109.781 50.4394 107.523 53.4091C105.281 56.3788 102.478 58.6591 99.1143 60.25C95.7658 61.8409 92.0916 62.6364 88.0916 62.6364C83.6674 62.6364 79.9325 61.6742 76.887 59.75C73.8416 57.8258 71.6749 55.0833 70.387 51.5227C69.0992 47.947 68.8567 43.7045 69.6598 38.7955C70.2961 34.9773 71.4249 31.5909 73.0461 28.6364C74.6825 25.6667 76.6825 23.1515 79.0461 21.0909C81.4249 19.0303 84.0537 17.4697 86.9325 16.4091C89.8113 15.3485 92.8037 14.8182 95.9098 14.8182C98.5916 14.8182 101.031 15.2045 103.228 15.9773C105.425 16.75 107.304 17.8409 108.864 19.25C110.425 20.6591 111.599 22.3333 112.387 24.2727C113.19 26.2121 113.539 28.3409 113.433 30.6591H102.046ZM165.26 15.4545L157.532 62H147.987L133.964 35.1364H133.646L129.169 62H117.919L125.646 15.4545H135.328L149.237 42.2727H149.623L154.032 15.4545H165.26ZM219.363 15.4545H230.59L225.613 45.4773C225.037 48.947 223.711 51.9697 221.635 54.5455C219.575 57.1061 216.946 59.0909 213.749 60.5C210.552 61.8939 206.991 62.5909 203.067 62.5909C199.128 62.5909 195.802 61.8939 193.09 60.5C190.378 59.0909 188.416 57.1061 187.203 54.5455C185.991 51.9697 185.666 48.947 186.226 45.4773L191.203 15.4545H202.453L197.613 44.5C197.355 46.1061 197.476 47.5379 197.976 48.7955C198.491 50.0379 199.325 51.0227 200.476 51.75C201.628 52.4621 203.037 52.8182 204.703 52.8182C206.385 52.8182 207.923 52.4621 209.317 51.75C210.711 51.0227 211.863 50.0379 212.772 48.7955C213.681 47.5379 214.264 46.1061 214.522 44.5L219.363 15.4545ZM232.474 62L240.201 15.4545H259.428C262.913 15.4545 265.815 16.1288 268.133 17.4773C270.451 18.8258 272.095 20.7121 273.065 23.1364C274.034 25.5606 274.254 28.3712 273.724 31.5682C273.208 34.7955 272.049 37.6061 270.246 40C268.458 42.3939 266.155 44.25 263.337 45.5682C260.519 46.8864 257.315 47.5455 253.724 47.5455H241.883L243.36 38.6818H253.133C254.845 38.6818 256.322 38.3864 257.565 37.7955C258.822 37.2045 259.83 36.3788 260.587 35.3182C261.345 34.2576 261.845 33.0076 262.087 31.5682C262.315 30.1288 262.224 28.8864 261.815 27.8409C261.405 26.7803 260.671 25.9621 259.61 25.3864C258.565 24.8106 257.201 24.5227 255.519 24.5227H249.974L243.724 62H232.474Z"/>
</mask>
<path d="M31.1364 29.5L30.1389 29.4294L30.0631 30.5H31.1364V29.5ZM29.7727 25.5227L29.0935 26.2567L29.099 26.2617L29.7727 25.5227ZM21.2273 24.6818L21.5601 25.6249L21.5723 25.6204L21.2273 24.6818ZM18.7955 26.2273L19.5362 26.8991L19.5438 26.8906L18.7955 26.2273ZM17.6818 28.5L18.6624 28.6961L18.6647 28.6845L18.6668 28.6728L17.6818 28.5ZM17.7955 30.3182L18.7239 29.9468L18.7239 29.9468L17.7955 30.3182ZM18.9091 31.7273L18.2982 32.5191L18.3091 32.5273L18.9091 31.7273ZM20.9318 32.7955L20.5788 33.7311L20.5845 33.7332L20.9318 32.7955ZM23.6818 33.5909L23.9135 32.618L23.9003 32.6151L23.6818 33.5909ZM27.5 34.5L27.2684 35.4729L27.2795 35.4754L27.5 34.5ZM33.25 36.5L32.7928 37.3894L32.8028 37.3944L33.25 36.5ZM37.2273 39.4773L36.4729 40.1337L36.4771 40.1386L37.2273 39.4773ZM39.3182 43.4545L40.2877 43.2097L39.3182 43.4545ZM39.4091 48.5L38.4233 48.3317L38.4224 48.3372L39.4091 48.5ZM35.9318 56.0682L35.1776 55.4116L35.1749 55.4147L35.9318 56.0682ZM28.7955 60.9091L28.4391 59.9748L28.4375 59.9754L28.7955 60.9091ZM8.70455 60.8409L8.30318 61.7569L8.30939 61.7595L8.70455 60.8409ZM2.84091 55.5L3.73191 55.046L2.84091 55.5ZM1.86364 46.5V45.5H1.00654L0.875409 46.347L1.86364 46.5ZM12.6136 46.5L13.6075 46.6104L13.7309 45.5H12.6136V46.5ZM13.1818 50.25L12.3039 50.7289L12.3095 50.739L13.1818 50.25ZM15.7727 52.5227L15.3688 53.4375L15.7727 52.5227ZM23.9773 52.6818L23.6425 51.7395L23.6386 51.7409L23.9773 52.6818ZM26.7273 50.9773L26.0052 50.2853L25.9977 50.2933L26.7273 50.9773ZM28 48.4773L27.0149 48.3045L27.0128 48.318L28 48.4773ZM27.5682 46.2273L26.7361 46.782L26.7407 46.7888L26.7453 46.7955L27.5682 46.2273ZM25.3864 44.5682L24.9664 45.4758L24.9716 45.4781L25.3864 44.5682ZM21.3864 43.2955L21.1494 44.2671L21.1628 44.2701L21.3864 43.2955ZM16.7273 42.1591L16.4901 43.1306L16.4903 43.1306L16.7273 42.1591ZM7.97727 37.6591L7.2544 38.3501L7.25705 38.3528L7.97727 37.6591ZM5.88636 29.2727L4.9001 29.1075L4.8994 29.1118L5.88636 29.2727ZM9.47727 21.6818L8.72957 21.0178L8.72698 21.0207L9.47727 21.6818ZM16.7727 16.6364L17.1499 17.5625L17.1523 17.5615L16.7727 16.6364ZM35.6136 16.6591L35.1664 17.5535L35.173 17.5568L35.6136 16.6591ZM40.9545 21.7955L40.0576 22.2378L40.0614 22.2451L40.9545 21.7955ZM41.9091 29.5V30.5H42.762L42.8966 29.6578L41.9091 29.5ZM32.1339 29.5706C32.2712 27.6312 31.7549 25.9767 30.4465 24.7838L29.099 26.2617C29.8512 26.9475 30.244 27.9446 30.1389 29.4294L32.1339 29.5706ZM30.4519 24.7888C29.1693 23.6019 27.2619 23.1136 24.9545 23.1136V25.1136C27.0411 25.1136 28.3459 25.5648 29.0935 26.2567L30.4519 24.7888ZM24.9545 23.1136C23.4183 23.1136 22.0524 23.313 20.8822 23.7432L21.5723 25.6204C22.4627 25.293 23.5817 25.1136 24.9545 25.1136V23.1136ZM20.8945 23.7388C19.7401 24.1463 18.7734 24.7446 18.0471 25.564L19.5438 26.8906C19.9994 26.3766 20.6539 25.9446 21.5601 25.6248L20.8945 23.7388ZM18.0547 25.5555C17.3373 26.3464 16.8811 27.2769 16.6969 28.3272L18.6668 28.6728C18.7855 27.9958 19.0718 27.4111 19.5362 26.8991L18.0547 25.5555ZM16.7012 28.3039C16.5352 29.1342 16.5685 29.9434 16.867 30.6896L18.7239 29.9468C18.5982 29.6324 18.5557 29.2294 18.6624 28.6961L16.7012 28.3039ZM16.867 30.6896C17.1562 31.4126 17.6511 32.0198 18.2983 32.5191L19.5199 30.9355C19.1065 30.6166 18.859 30.2843 18.7239 29.9468L16.867 30.6896ZM18.3091 32.5273C18.9466 33.0054 19.7091 33.4029 20.5788 33.7311L21.2849 31.8599C20.5484 31.5819 19.9625 31.2673 19.5091 30.9273L18.3091 32.5273ZM20.5845 33.7332C21.4518 34.0544 22.4125 34.3315 23.4633 34.5667L23.9003 32.6151C22.9209 32.3958 22.0482 32.1425 21.2791 31.8577L20.5845 33.7332ZM23.4502 34.5637L27.2684 35.4728L27.7316 33.5272L23.9134 32.6181L23.4502 34.5637ZM27.2795 35.4754C29.4285 35.9611 31.2622 36.6026 32.7928 37.3894L33.7072 35.6106C31.9954 34.7307 29.9957 34.0389 27.7205 33.5246L27.2795 35.4754ZM32.8028 37.3944C34.3432 38.1646 35.5578 39.082 36.4729 40.1337L37.9817 38.8209C36.8665 37.5392 35.4295 36.4717 33.6972 35.6056L32.8028 37.3944ZM36.4771 40.1386C37.3862 41.1697 38.0085 42.3524 38.3486 43.6994L40.2877 43.2097C39.8703 41.5567 39.0986 40.0878 37.9774 38.816L36.4771 40.1386ZM38.3486 43.6994C38.6866 45.0378 38.7232 46.5756 38.4234 48.3317L40.3948 48.6683C40.7314 46.6971 40.7073 44.8713 40.2877 43.2097L38.3486 43.6994ZM38.4224 48.3372C37.9657 51.1064 36.8809 53.4549 35.1776 55.4116L36.6861 56.7248C38.6494 54.4694 39.8828 51.7724 40.3958 48.6628L38.4224 48.3372ZM35.1749 55.4147C33.4784 57.3798 31.2442 58.9047 28.4391 59.9748L29.1519 61.8434C32.2255 60.671 34.7489 58.9687 36.6888 56.7217L35.1749 55.4147ZM28.4375 59.9754C25.6511 61.0437 22.3755 61.5909 18.5909 61.5909V63.5909C22.5639 63.5909 26.0913 63.0169 29.1535 61.8428L28.4375 59.9754ZM18.5909 61.5909C14.8074 61.5909 11.6545 61.0213 9.0997 59.9223L8.30939 61.7595C11.1789 62.9939 14.6168 63.5909 18.5909 63.5909V61.5909ZM9.1059 59.925C6.59739 58.8257 4.82813 57.1973 3.73191 55.046L1.94991 55.954C3.27793 58.5602 5.41777 60.4924 8.30319 61.7568L9.1059 59.925ZM3.73191 55.046C2.64482 52.9126 2.31168 50.1423 2.85186 46.653L0.875409 46.347C0.294385 50.1001 0.612758 53.3298 1.94991 55.954L3.73191 55.046ZM1.86364 47.5H12.6136V45.5H1.86364V47.5ZM11.6198 46.3896C11.4377 48.0279 11.633 49.4988 12.3039 50.7289L14.0597 49.7711C13.6398 49.0012 13.4562 47.9721 13.6075 46.6104L11.6198 46.3896ZM12.3095 50.739C12.9879 51.9491 14.0275 52.8452 15.3688 53.4375L16.1767 51.6079C15.1847 51.1699 14.4969 50.5509 14.0541 49.761L12.3095 50.739ZM15.3688 53.4375C16.6943 54.0228 18.2487 54.2955 20 54.2955V52.2955C18.4483 52.2955 17.1845 52.0529 16.1767 51.6079L15.3688 53.4375ZM20 54.2955C21.6025 54.2955 23.0473 54.0794 24.316 53.6227L23.6386 51.7409C22.6345 52.1024 21.4278 52.2955 20 52.2955V54.2955ZM24.312 53.6241C25.5804 53.1735 26.644 52.5283 27.4568 51.6612L25.9977 50.2933C25.447 50.8808 24.6772 51.3719 23.6425 51.7395L24.312 53.6241ZM27.4493 51.6692C28.278 50.8045 28.8015 49.7883 28.9872 48.6365L27.0128 48.318C26.8955 49.045 26.5705 49.6955 26.0053 50.2854L27.4493 51.6692ZM28.985 48.6501C29.1753 47.5654 29.0001 46.5411 28.3911 45.6591L26.7453 46.7955C27.0151 47.1862 27.1278 47.6619 27.015 48.3045L28.985 48.6501ZM28.4002 45.6726C27.8344 44.8239 26.9247 44.1705 25.8012 43.6583L24.9716 45.4781C25.9087 45.9053 26.4535 46.358 26.7361 46.782L28.4002 45.6726ZM25.8063 43.6606C24.7049 43.151 23.2983 42.708 21.6099 42.3208L21.1628 44.2701C22.7775 44.6405 24.0376 45.046 24.9664 45.4757L25.8063 43.6606ZM21.6233 42.3239L16.9642 41.1876L16.4903 43.1306L21.1494 44.267L21.6233 42.3239ZM16.9644 41.1876C13.2319 40.2765 10.5095 38.8465 8.6975 36.9653L7.25705 38.3528C9.41475 40.5929 12.5257 42.1629 16.4901 43.1306L16.9644 41.1876ZM8.70015 36.9681C7.00186 35.1914 6.33383 32.7416 6.87332 29.4337L4.8994 29.1118C4.28738 32.8644 5.01329 36.0055 7.2544 38.3501L8.70015 36.9681ZM6.87262 29.438C7.32715 26.725 8.44395 24.3672 10.2276 22.3429L8.72698 21.0207C6.69242 23.3298 5.41527 26.0326 4.90011 29.1075L6.87262 29.438ZM10.225 22.3459C12.038 20.3044 14.3387 18.7073 17.1499 17.5625L16.3956 15.7102C13.3279 16.9594 10.765 18.7259 8.72958 21.0178L10.225 22.3459ZM17.1523 17.5615C19.9738 16.404 23.0931 15.8182 26.5227 15.8182V13.8182C22.8614 13.8182 19.4808 14.4445 16.3932 15.7112L17.1523 17.5615ZM26.5227 15.8182C30.0204 15.8182 32.8873 16.414 35.1664 17.5535L36.0608 15.7647C33.4309 14.4497 30.2372 13.8182 26.5227 13.8182V15.8182ZM35.173 17.5568C37.4687 18.6835 39.0757 20.2465 40.0577 22.2377L41.8514 21.3532C40.6516 18.9202 38.698 17.0589 36.0542 15.7614L35.173 17.5568ZM40.0614 22.2451C41.0546 24.2179 41.3653 26.5657 40.9216 29.3422L42.8966 29.6578C43.3923 26.5555 43.0667 23.7669 41.8477 21.3458L40.0614 22.2451ZM41.9091 28.5H31.1364V30.5H41.9091V28.5ZM64.4009 15.4545L65.3874 15.6183L65.5806 14.4545H64.4009V15.4545ZM56.6736 62V63H57.5213L57.6601 62.1638L56.6736 62ZM45.4236 62L44.4371 61.8362L44.2439 63H45.4236V62ZM53.1509 15.4545V14.4545H52.3032L52.1644 15.2908L53.1509 15.4545ZM63.4144 15.2908L55.6871 61.8362L57.6601 62.1638L65.3874 15.6183L63.4144 15.2908ZM56.6736 61H45.4236V63H56.6736V61ZM46.4101 62.1638L54.1374 15.6183L52.1644 15.2908L44.4371 61.8362L46.4101 62.1638ZM53.1509 16.4545H64.4009V14.4545H53.1509V16.4545ZM102.046 30.6591L101.051 30.7539L101.137 31.6591H102.046V30.6591ZM101.41 28.1364L100.497 28.546L100.501 28.553L101.41 28.1364ZM97.9098 25.0909L97.6038 26.0429L97.6115 26.0454L97.6193 26.0478L97.9098 25.0909ZM88.728 26.3182L89.2241 27.1864L88.728 26.3182ZM83.887 31.0909L84.7312 31.627L84.733 31.6242L83.887 31.0909ZM81.1825 38.6591L80.1956 38.498L80.1954 38.4988L81.1825 38.6591ZM81.137 46.2955L80.1595 46.5064L80.161 46.5131L81.137 46.2955ZM95.0461 51.7727L95.4326 52.6951L95.4401 52.6919L95.0461 51.7727ZM98.9098 48.8864L98.1307 48.2593L98.1261 48.2652L98.9098 48.8864ZM100.796 44.5L100.916 43.5072L99.9543 43.391L99.8077 44.3486L100.796 44.5ZM102.864 44.75V45.75L102.984 43.7572L102.864 44.75ZM91.5461 44.75L90.5597 44.586L90.3662 45.75H91.5461V44.75ZM92.9098 36.5455V35.5455H92.0623L91.9233 36.3815L92.9098 36.5455ZM112.955 36.5455L113.942 36.7093L114.135 35.5455H112.955V36.5455ZM111.933 42.7045L110.946 42.5407L110.946 42.5431L111.933 42.7045ZM107.523 53.4091L106.727 52.8039L106.725 52.8065L107.523 53.4091ZM99.1143 60.25L98.6868 59.346L98.6852 59.3468L99.1143 60.25ZM76.887 59.75L76.3529 60.5954L76.887 59.75ZM70.387 51.5227L69.4462 51.8616L69.4467 51.8629L70.387 51.5227ZM69.6598 38.7955L68.6734 38.6311L68.6729 38.634L69.6598 38.7955ZM73.0461 28.6364L72.1703 28.1538L72.1694 28.1553L73.0461 28.6364ZM79.0461 21.0909L78.3914 20.3351L78.389 20.3371L79.0461 21.0909ZM86.9325 16.4091L86.5868 15.4707L86.9325 16.4091ZM112.387 24.2727L111.461 24.6491L111.463 24.6553L112.387 24.2727ZM113.433 30.6591V31.6591H114.388L114.431 30.7048L113.433 30.6591ZM103.042 30.5643C102.942 29.5198 102.707 28.5666 102.319 27.7197L100.501 28.553C100.779 29.1607 100.968 29.8892 101.051 30.7539L103.042 30.5643ZM102.322 27.7268C101.934 26.8635 101.399 26.1183 100.713 25.5048L99.3793 26.9952C99.8451 27.412 100.218 27.9244 100.498 28.546L102.322 27.7268ZM100.713 25.5048C100.014 24.8791 99.1675 24.4277 98.2003 24.134L97.6193 26.0478C98.349 26.2693 98.9271 26.5906 99.3793 26.9952L100.713 25.5048ZM98.2158 24.1389C97.2467 23.8274 96.1548 23.6818 94.9552 23.6818V25.6818C95.9981 25.6818 96.8759 25.809 97.6038 26.0429L98.2158 24.1389ZM94.9552 23.6818C92.5424 23.6818 90.2951 24.2709 88.2318 25.4499L89.2241 27.1864C90.979 26.1836 92.8832 25.6818 94.9552 25.6818V23.6818ZM88.2318 25.4499C86.1636 26.6318 84.4357 28.3455 83.0411 30.5576L84.733 31.6242C85.9748 29.6545 87.4742 28.1864 89.2241 27.1864L88.2318 25.4499ZM83.0429 30.5548C81.638 32.7671 80.6974 35.424 80.1956 38.498L82.1694 38.8202C82.6373 35.9548 83.4997 33.5662 84.7312 31.627L83.0429 30.5548ZM80.1954 38.4988C79.698 41.5608 79.6703 44.2397 80.1596 46.5064L82.1145 46.0845C81.6947 44.139 81.6973 41.727 82.1696 38.8194L80.1954 38.4988ZM80.161 46.5131C80.6703 48.7967 81.7119 50.624 83.3378 51.9002L84.5727 50.327C83.3804 49.3911 82.5432 48.0064 82.1131 46.0778L80.161 46.5131ZM83.3378 51.9002C84.969 53.1806 87.0705 53.7727 89.5461 53.7727V51.7727C87.3854 51.7727 85.7597 51.2588 84.5727 50.327L83.3378 51.9002ZM89.5461 53.7727C91.7282 53.7727 93.6971 53.4223 95.4326 52.695L94.6597 50.8504C93.2133 51.4565 91.5156 51.7727 89.5461 51.7727V53.7727ZM95.4401 52.6919C97.1693 51.9508 98.5962 50.8918 99.6934 49.5076L98.1261 48.2652C97.2537 49.3658 96.1048 50.231 94.6522 50.8536L95.4401 52.6919ZM99.6888 49.5134C100.807 48.1244 101.502 46.4954 101.785 44.6514L99.8077 44.3486C99.5749 45.8683 99.0128 47.1634 98.1308 48.2594L99.6888 49.5134ZM100.676 45.4928L102.744 45.7428L102.984 43.7572L100.916 43.5072L100.676 45.4928ZM102.864 43.75H91.5461V45.75H102.864V43.75ZM92.5326 44.914L93.8962 36.7094L91.9233 36.3815L90.5597 44.586L92.5326 44.914ZM92.9098 37.5455H112.955V35.5455H92.9098V37.5455ZM111.969 36.3816L110.946 42.5407L112.919 42.8684L113.942 36.7093L111.969 36.3816ZM110.946 42.5431C110.287 46.57 108.874 49.9806 106.727 52.8039L108.319 54.0143C110.688 50.8982 112.215 47.1725 112.919 42.866L110.946 42.5431ZM106.725 52.8065C104.58 55.6473 101.904 57.8242 98.6868 59.346L99.5419 61.154C103.052 59.494 105.982 57.1103 108.321 54.0117L106.725 52.8065ZM98.6852 59.3468C95.4812 60.869 91.9551 61.6364 88.0916 61.6364V63.6364C92.2281 63.6364 96.0505 62.8128 99.5435 61.1532L98.6852 59.3468ZM88.0916 61.6364C83.8132 61.6364 80.2738 60.707 77.4212 58.9046L76.3529 60.5954C79.5912 62.6415 83.5215 63.6364 88.0916 63.6364V61.6364ZM77.4212 58.9046C74.5735 57.1053 72.5439 54.5458 71.3274 51.1826L69.4467 51.8629C70.806 55.6209 73.1096 58.5462 76.3529 60.5954L77.4212 58.9046ZM71.3279 51.1839C70.1128 47.8102 69.8629 43.7483 70.6467 38.9569L68.6729 38.634C67.8506 43.6608 68.0855 48.0837 69.4462 51.8616L71.3279 51.1839ZM70.6462 38.9599C71.2667 35.2364 72.3631 31.9599 73.9228 29.1174L72.1694 28.1553C70.4867 31.2219 69.3255 34.7181 68.6734 38.6311L70.6462 38.9599ZM73.922 29.119C75.5065 26.2434 77.4348 23.8224 79.7033 21.8447L78.389 20.3371C75.9302 22.4807 73.8585 25.0899 72.1703 28.1538L73.922 29.119ZM79.7009 21.8468C81.9909 19.863 84.5155 18.3653 87.2782 17.3474L86.5868 15.4707C83.5919 16.5741 80.8589 18.1976 78.3914 20.3351L79.7009 21.8468ZM87.2782 17.3474C90.0449 16.3281 92.9202 15.8182 95.9098 15.8182V13.8182C92.6872 13.8182 89.5777 14.3688 86.5868 15.4707L87.2782 17.3474ZM95.9098 15.8182C98.4954 15.8182 100.821 16.1906 102.896 16.9206L103.56 15.0339C101.241 14.2185 98.6878 13.8182 95.9098 13.8182V15.8182ZM102.896 16.9206C104.982 17.6541 106.742 18.681 108.194 19.9922L109.534 18.5078C107.865 17.0008 105.868 15.8459 103.56 15.0339L102.896 16.9206ZM108.194 19.9922C109.643 21.3007 110.73 22.8501 111.461 24.6491L113.314 23.8964C112.469 21.8166 111.206 20.0175 109.534 18.5078L108.194 19.9922ZM111.463 24.6553C112.204 26.4454 112.534 28.4261 112.434 30.6134L114.431 30.7048C114.544 28.2557 114.176 25.9788 113.311 23.8902L111.463 24.6553ZM113.433 29.6591H102.046V31.6591H113.433V29.6591ZM165.26 15.4545L166.246 15.6183L166.439 14.4545H165.26V15.4545ZM157.532 62V63H158.38L158.519 62.1638L157.532 62ZM147.987 62L147.1 62.4627L147.381 63H147.987V62ZM133.964 35.1364L134.851 34.6736L134.57 34.1364H133.964V35.1364ZM133.646 35.1364V34.1364H132.799L132.66 34.972L133.646 35.1364ZM129.169 62V63H130.016L130.155 62.1644L129.169 62ZM117.919 62L116.932 61.8362L116.739 63H117.919V62ZM125.646 15.4545V14.4545H124.798L124.659 15.2908L125.646 15.4545ZM135.328 15.4545L136.215 14.9941L135.936 14.4545H135.328V15.4545ZM149.237 42.2727L148.349 42.7331L148.629 43.2727H149.237V42.2727ZM149.623 42.2727V43.2727H150.472L150.61 42.435L149.623 42.2727ZM154.032 15.4545V14.4545H153.183L153.046 15.2923L154.032 15.4545ZM164.273 15.2908L156.546 61.8362L158.519 62.1638L166.246 15.6183L164.273 15.2908ZM157.532 61H147.987V63H157.532V61ZM148.873 61.5373L134.851 34.6736L133.078 35.5991L147.1 62.4627L148.873 61.5373ZM133.964 34.1364H133.646V36.1364H133.964V34.1364ZM132.66 34.972L128.182 61.8356L130.155 62.1644L134.632 35.3008L132.66 34.972ZM129.169 61H117.919V63H129.169V61ZM118.905 62.1638L126.632 15.6183L124.659 15.2908L116.932 61.8362L118.905 62.1638ZM125.646 16.4545H135.328V14.4545H125.646V16.4545ZM134.44 15.9149L148.349 42.7331L150.125 41.8123L136.215 14.9941L134.44 15.9149ZM149.237 43.2727H149.623V41.2727H149.237V43.2727ZM150.61 42.435L155.019 15.6168L153.046 15.2923L148.636 42.1105L150.61 42.435ZM154.032 16.4545H165.26V14.4545H154.032V16.4545ZM219.363 15.4545V14.4545H218.515L218.376 15.2901L219.363 15.4545ZM230.59 15.4545L231.576 15.6181L231.769 14.4545H230.59V15.4545ZM225.613 45.4773L226.599 45.641L226.599 45.6408L225.613 45.4773ZM221.635 54.5455L220.857 53.918L220.856 53.9185L221.635 54.5455ZM213.749 60.5L214.149 61.4167L214.152 61.4151L213.749 60.5ZM193.09 60.5L192.629 61.3874L192.633 61.3894L193.09 60.5ZM187.203 54.5455L186.299 54.9713L186.3 54.9733L187.203 54.5455ZM186.226 45.4773L185.24 45.3137L185.239 45.3178L186.226 45.4773ZM191.203 15.4545V14.4545H190.356L190.217 15.291L191.203 15.4545ZM202.453 15.4545L203.44 15.6189L203.634 14.4545H202.453V15.4545ZM197.613 44.5L196.626 44.3356L196.625 44.3416L197.613 44.5ZM197.976 48.7955L197.047 49.1649L197.05 49.1717L197.052 49.1785L197.976 48.7955ZM200.476 51.75L199.942 52.5955L199.95 52.6005L200.476 51.75ZM209.317 51.75L209.772 52.6406L209.78 52.6366L209.317 51.75ZM212.772 48.7955L213.579 49.386L213.582 49.3813L212.772 48.7955ZM214.522 44.5L213.535 44.3356L213.534 44.3416L214.522 44.5ZM219.363 16.4545H230.59V14.4545H219.363V16.4545ZM229.603 15.291L224.626 45.3137L226.599 45.6408L231.576 15.6181L229.603 15.291ZM224.626 45.3136C224.077 48.6245 222.817 51.4848 220.857 53.918L222.414 55.1729C224.605 52.4546 225.997 49.2695 226.599 45.641L224.626 45.3136ZM220.856 53.9185C218.902 56.3466 216.405 58.2362 213.346 59.5849L214.152 61.4151C217.486 59.9456 220.247 57.8656 222.414 55.1724L220.856 53.9185ZM213.349 59.5833C210.293 60.9158 206.871 61.5909 203.067 61.5909V63.5909C207.112 63.5909 210.811 62.8721 214.149 61.4167L213.349 59.5833ZM203.067 61.5909C199.242 61.5909 196.082 60.9138 193.547 59.6106L192.633 61.3894C195.521 62.8741 199.014 63.5909 203.067 63.5909V61.5909ZM193.551 59.6126C191.016 58.2958 189.218 56.4649 188.107 54.1176L186.3 54.9733C187.613 57.7473 189.739 59.886 192.629 61.3874L193.551 59.6126ZM188.108 54.1197C187 51.7651 186.677 48.9546 187.213 45.6368L185.239 45.3178C184.654 48.9393 184.982 52.1743 186.299 54.9713L188.108 54.1197ZM187.213 45.6408L192.19 15.6181L190.217 15.291L185.24 45.3137L187.213 45.6408ZM191.203 16.4545H202.453V14.4545H191.203V16.4545ZM201.467 15.2901L196.626 44.3356L198.599 44.6644L203.44 15.6189L201.467 15.2901ZM196.625 44.3416C196.345 46.0896 196.468 47.7089 197.047 49.1649L198.905 48.426C198.484 47.3669 198.365 46.1225 198.6 44.6584L196.625 44.3416ZM197.052 49.1785C197.648 50.6141 198.618 51.7595 199.942 52.5955L201.01 50.9045C200.031 50.286 199.335 49.4616 198.9 48.4124L197.052 49.1785ZM199.95 52.6005C201.293 53.4307 202.894 53.8182 204.703 53.8182V51.8182C203.18 51.8182 201.963 51.4936 201.002 50.8995L199.95 52.6005ZM204.703 53.8182C206.531 53.8182 208.227 53.4299 209.772 52.6405L208.862 50.8595C207.619 51.4944 206.239 51.8182 204.703 51.8182V53.8182ZM209.78 52.6366C211.307 51.8399 212.577 50.7549 213.579 49.386L211.965 48.2049C211.148 49.3209 210.115 50.2055 208.854 50.8634L209.78 52.6366ZM213.582 49.3813C214.587 47.9909 215.228 46.4111 215.509 44.6584L213.534 44.3416C213.3 45.801 212.774 47.0849 211.961 48.2096L213.582 49.3813ZM215.508 44.6644L220.349 15.6189L218.376 15.2901L213.535 44.3356L215.508 44.6644ZM232.474 62L231.487 61.8362L231.294 63H232.474V62ZM240.201 15.4545V14.4545H239.353L239.214 15.2908L240.201 15.4545ZM273.065 23.1364L273.993 22.765V22.765L273.065 23.1364ZM273.724 31.5682L272.737 31.4045L272.736 31.4106L273.724 31.5682ZM270.246 40L269.448 39.3984L269.445 39.4016L270.246 40ZM263.337 45.5682L263.761 46.474L263.337 45.5682ZM241.883 47.5455L240.896 47.3811L240.702 48.5455H241.883V47.5455ZM243.36 38.6818V37.6818H242.513L242.374 38.5174L243.36 38.6818ZM257.565 37.7955L257.139 36.8904L257.135 36.8924L257.565 37.7955ZM260.587 35.3182L259.774 34.7369L260.587 35.3182ZM262.087 31.5682L263.073 31.7343L263.075 31.7241L262.087 31.5682ZM261.815 27.8409L260.882 28.2008L260.883 28.2053L261.815 27.8409ZM259.61 25.3864L259.128 26.2623L259.133 26.2652L259.61 25.3864ZM249.974 24.5227V23.5227H249.127L248.987 24.3582L249.974 24.5227ZM243.724 62V63H244.571L244.71 62.1645L243.724 62ZM233.46 62.1638L241.187 15.6183L239.214 15.2908L231.487 61.8362L233.46 62.1638ZM240.201 16.4545H259.428V14.4545H240.201V16.4545ZM259.428 16.4545C262.788 16.4545 265.504 17.1048 267.63 18.3417L268.636 16.6129C266.126 15.1528 263.038 14.4545 259.428 14.4545V16.4545ZM267.63 18.3417C269.761 19.5812 271.252 21.2967 272.136 23.5078L273.993 22.765C272.938 20.1275 271.141 18.0703 268.636 16.6129L267.63 18.3417ZM272.136 23.5078C273.023 25.7258 273.245 28.3446 272.737 31.4045L274.71 31.7318C275.263 28.3978 275.045 25.3955 273.993 22.765L272.136 23.5078ZM272.736 31.4106C272.244 34.4916 271.144 37.1464 269.448 39.3984L271.045 40.6016C272.955 38.0658 274.173 35.0993 274.711 31.7258L272.736 31.4106ZM269.445 39.4016C267.76 41.658 265.589 43.411 262.914 44.6624L263.761 46.474C266.722 45.089 269.157 43.1299 271.048 40.5984L269.445 39.4016ZM262.914 44.6624C260.247 45.9096 257.191 46.5455 253.724 46.5455V48.5455C257.438 48.5455 260.791 47.8631 263.761 46.474L262.914 44.6624ZM253.724 46.5455H241.883V48.5455H253.724V46.5455ZM242.869 47.7099L244.346 38.8462L242.374 38.5174L240.896 47.3811L242.869 47.7099ZM243.36 39.6818H253.133V37.6818H243.36V39.6818ZM253.133 39.6818C254.958 39.6818 256.589 39.3669 257.994 38.6985L257.135 36.8924C256.055 37.4058 254.732 37.6818 253.133 37.6818V39.6818ZM257.99 38.7005C259.392 38.0417 260.537 37.1087 261.401 35.8994L259.774 34.7369C259.122 35.6489 258.252 36.3674 257.139 36.8904L257.99 38.7005ZM261.401 35.8994C262.257 34.7012 262.809 33.3052 263.073 31.7343L261.101 31.4021C260.881 32.7099 260.433 33.814 259.774 34.7369L261.401 35.8994ZM263.075 31.7241C263.322 30.1604 263.236 28.7296 262.746 27.4765L260.883 28.2053C261.211 29.0431 261.307 30.0972 261.1 31.4122L263.075 31.7241ZM262.748 27.481C262.247 26.1844 261.343 25.189 260.087 24.5075L259.133 26.2652C259.999 26.7352 260.563 27.3762 260.882 28.2008L262.748 27.481ZM260.092 24.5104C258.851 23.8268 257.304 23.5227 255.519 23.5227V25.5227C257.097 25.5227 258.278 25.7944 259.128 26.2623L260.092 24.5104ZM255.519 23.5227H249.974V25.5227H255.519V23.5227ZM248.987 24.3582L242.737 61.8355L244.71 62.1645L250.96 24.6872L248.987 24.3582ZM243.724 61H232.474V63H243.724V61Z" fill="url(#paint0_linear_26_16)" mask="url(#path-1-outside-1_26_16)"/>
<g filter="url(#filter0_f_26_16)">
<path d="M217 62.672L239 62.8386L261 62.672V62.3386H217V62.672Z" fill="url(#paint1_linear_26_16)"/>
</g>
<g filter="url(#filter1_f_26_16)">
<path d="M105 14.7649L129.5 14.4316L154 14.7649V15.4316H105V14.7649Z" fill="url(#paint2_linear_26_16)"/>
</g>
<g filter="url(#filter2_f_26_16)">
<path d="M2 14.0982L26 13.7649L50 14.0982V14.7649H2V14.0982Z" fill="url(#paint3_linear_26_16)"/>
</g>
<g filter="url(#filter3_f_26_16)">
<path d="M56.52 65.2563L59.6447 41.452L64.0288 17.8473L65.2883 18.0467L57.7794 65.4558L56.52 65.2563Z" fill="url(#paint4_linear_26_16)"/>
</g>
<g filter="url(#filter4_f_26_16)">
<path d="M68.259 39.3267L68.9853 35.7352L69.7811 32.6433L72.1176 27.4123L74.7318 24.1801L82.9912 17.4816L76.4809 23.54L73.9361 27.2719L71.4607 31.5035L70.5955 34.0956L69.0045 40.2792L68 41.872L68.259 39.3267Z" fill="url(#paint5_linear_26_16)"/>
</g>
<g filter="url(#filter5_f_26_16)">
<path d="M126.329 84.1736L131.407 49.98L137.144 15.8908L137.803 15.9951L126.988 84.2779L126.329 84.1736Z" fill="url(#paint6_linear_26_16)"/>
</g>
<g filter="url(#filter6_f_26_16)">
<path d="M156.523 78.9121L140.676 49.5199L125.171 19.9463L125.512 19.7649L156.864 78.7307L156.523 78.9121Z" fill="url(#paint7_linear_26_16)"/>
</g>
<g filter="url(#filter7_f_26_16)">
<path d="M63.2966 24.6169L85.6639 15.9101L108.259 7.81239L108.486 8.42148L63.5242 25.226L63.2966 24.6169Z" fill="url(#paint8_linear_26_16)"/>
</g>
<mask id="mask0_26_16" style="mask-type:alpha" maskUnits="userSpaceOnUse" x="1" y="14" width="274" height="49">
<path d="M31.1364 29.5C31.2576 27.7879 30.803 26.4621 29.7727 25.5227C28.7576 24.5833 27.1515 24.1136 24.9545 24.1136C23.5 24.1136 22.2576 24.303 21.2273 24.6818C20.197 25.0455 19.3864 25.5606 18.7955 26.2273C18.2045 26.8788 17.8333 27.6364 17.6818 28.5C17.5455 29.1818 17.5833 29.7879 17.7955 30.3182C18.0076 30.8485 18.3788 31.3182 18.9091 31.7273C19.4545 32.1364 20.1288 32.4924 20.9318 32.7955C21.75 33.0985 22.6667 33.3636 23.6818 33.5909L27.5 34.5C29.7121 35 31.6288 35.6667 33.25 36.5C34.8864 37.3182 36.2121 38.3106 37.2273 39.4773C38.2424 40.6288 38.9394 41.9545 39.3182 43.4545C39.697 44.9545 39.7273 46.6364 39.4091 48.5C38.9242 51.4394 37.7652 53.9621 35.9318 56.0682C34.1136 58.1742 31.7349 59.7879 28.7955 60.9091C25.8712 62.0303 22.4697 62.5909 18.5909 62.5909C14.7121 62.5909 11.4167 62.0076 8.70455 60.8409C6.00758 59.6591 4.05303 57.8788 2.84091 55.5C1.62879 53.1212 1.30303 50.1212 1.86364 46.5H12.6136C12.447 48 12.6364 49.25 13.1818 50.25C13.7424 51.25 14.6061 52.0076 15.7727 52.5227C16.9394 53.0379 18.3485 53.2955 20 53.2955C21.5152 53.2955 22.8409 53.0909 23.9773 52.6818C25.1288 52.2727 26.0455 51.7045 26.7273 50.9773C27.4242 50.25 27.8485 49.4167 28 48.4773C28.1515 47.6136 28.0076 46.8636 27.5682 46.2273C27.1439 45.5909 26.4167 45.0379 25.3864 44.5682C24.3712 44.0985 23.0379 43.6742 21.3864 43.2955L16.7273 42.1591C12.8788 41.2197 9.96212 39.7197 7.97727 37.6591C6.00758 35.5985 5.31061 32.803 5.88636 29.2727C6.37121 26.3788 7.56818 23.8485 9.47727 21.6818C11.4015 19.5151 13.8333 17.8333 16.7727 16.6364C19.7273 15.4242 22.9773 14.8182 26.5227 14.8182C30.1288 14.8182 33.1591 15.4318 35.6136 16.6591C38.0833 17.8712 39.8636 19.5833 40.9545 21.7955C42.0606 23.9924 42.3788 26.5606 41.9091 29.5H31.1364ZM64.4009 15.4545L56.6736 62H45.4236L53.1509 15.4545H64.4009ZM102.046 30.6591C101.955 29.7045 101.743 28.8636 101.41 28.1364C101.076 27.3939 100.622 26.7652 100.046 26.25C99.4704 25.7348 98.7583 25.3485 97.9098 25.0909C97.0613 24.8182 96.0764 24.6818 94.9552 24.6818C92.7128 24.6818 90.637 25.2273 88.728 26.3182C86.8189 27.4091 85.2052 29 83.887 31.0909C82.5689 33.1667 81.6674 35.6894 81.1825 38.6591C80.6977 41.6439 80.6825 44.1894 81.137 46.2955C81.6067 48.4015 82.5461 50.0076 83.9552 51.1136C85.3643 52.2197 87.228 52.7727 89.5461 52.7727C91.6219 52.7727 93.4552 52.4394 95.0461 51.7727C96.637 51.0909 97.9249 50.1288 98.9098 48.8864C99.9098 47.6439 100.539 46.1818 100.796 44.5L102.864 44.75H91.5461L92.9098 36.5455H112.955L111.933 42.7045C111.251 46.8712 109.781 50.4394 107.523 53.4091C105.281 56.3788 102.478 58.6591 99.1143 60.25C95.7658 61.8409 92.0916 62.6364 88.0916 62.6364C83.6674 62.6364 79.9325 61.6742 76.887 59.75C73.8416 57.8258 71.6749 55.0833 70.387 51.5227C69.0992 47.947 68.8567 43.7045 69.6598 38.7955C70.2961 34.9773 71.4249 31.5909 73.0461 28.6364C74.6825 25.6667 76.6825 23.1515 79.0461 21.0909C81.4249 19.0303 84.0537 17.4697 86.9325 16.4091C89.8113 15.3485 92.8037 14.8182 95.9098 14.8182C98.5916 14.8182 101.031 15.2045 103.228 15.9773C105.425 16.75 107.304 17.8409 108.864 19.25C110.425 20.6591 111.599 22.3333 112.387 24.2727C113.19 26.2121 113.539 28.3409 113.433 30.6591H102.046ZM165.26 15.4545L157.532 62H147.987L133.964 35.1364H133.646L129.169 62H117.919L125.646 15.4545H135.328L149.237 42.2727H149.623L154.032 15.4545H165.26ZM219.363 15.4545H230.59L225.613 45.4773C225.037 48.947 223.711 51.9697 221.635 54.5455C219.575 57.1061 216.946 59.0909 213.749 60.5C210.552 61.8939 206.991 62.5909 203.067 62.5909C199.128 62.5909 195.802 61.8939 193.09 60.5C190.378 59.0909 188.416 57.1061 187.203 54.5455C185.991 51.9697 185.666 48.947 186.226 45.4773L191.203 15.4545H202.453L197.613 44.5C197.355 46.1061 197.476 47.5379 197.976 48.7955C198.491 50.0379 199.325 51.0227 200.476 51.75C201.628 52.4621 203.037 52.8182 204.703 52.8182C206.385 52.8182 207.923 52.4621 209.317 51.75C210.711 51.0227 211.863 50.0379 212.772 48.7955C213.681 47.5379 214.264 46.1061 214.522 44.5L219.363 15.4545ZM232.474 62L240.201 15.4545H259.428C262.913 15.4545 265.815 16.1288 268.133 17.4773C270.451 18.8258 272.095 20.7121 273.065 23.1364C274.034 25.5606 274.254 28.3712 273.724 31.5682C273.208 34.7955 272.049 37.6061 270.246 40C268.458 42.3939 266.155 44.25 263.337 45.5682C260.519 46.8864 257.315 47.5455 253.724 47.5455H241.883L243.36 38.6818H253.133C254.845 38.6818 256.322 38.3864 257.565 37.7955C258.822 37.2045 259.83 36.3788 260.587 35.3182C261.345 34.2576 261.845 33.0076 262.087 31.5682C262.315 30.1288 262.224 28.8864 261.815 27.8409C261.405 26.7803 260.671 25.9621 259.61 25.3864C258.565 24.8106 257.201 24.5227 255.519 24.5227H249.974L243.724 62H232.474Z" fill="url(#paint9_linear_26_16)"/>
</mask>
<g mask="url(#mask0_26_16)">
<g filter="url(#filter8_f_26_16)">
<path d="M197 55.8386C197 67.4366 206.402 76.8386 218 76.8386C229.598 76.8386 239 67.4366 239 55.8386C239 44.2406 229.598 34.8386 218 34.8386C206.402 34.8386 197 44.2406 197 55.8386Z" fill="#01FF66"/>
</g>
<g filter="url(#filter9_f_26_16)">
<path d="M138 15.7649C138 20.1832 141.582 23.7649 146 23.7649C150.418 23.7649 154 20.1832 154 15.7649C154 11.3466 150.418 7.76489 146 7.76489C141.582 7.76489 138 11.3466 138 15.7649Z" fill="#00FF57"/>
</g>
<g filter="url(#filter10_f_26_16)">
<path d="M130 53.7649C130 58.1832 133.582 61.7649 138 61.7649C142.418 61.7649 146 58.1832 146 53.7649C146 49.3466 142.418 45.7649 138 45.7649C133.582 45.7649 130 49.3466 130 53.7649Z" fill="#377228"/>
</g>
<g filter="url(#filter11_f_26_16)">
<path d="M-3 22.765C-3 31.6015 4.16344 38.765 13 38.765C21.8366 38.765 29 31.6015 29 22.765C29 13.9284 21.8366 6.76495 13 6.76495C4.16344 6.76495 -3 13.9284 -3 22.765Z" fill="#027537"/>
</g>
<g filter="url(#filter12_f_26_16)">
<path d="M55 41.7649C55 49.4969 61.268 55.7649 69 55.7649C76.732 55.7649 83 49.4969 83 41.7649C83 34.0329 76.732 27.7649 69 27.7649C61.268 27.7649 55 34.0329 55 41.7649Z" fill="#7F9214"/>
</g>
</g>
<defs>
<filter id="filter0_f_26_16" x="216.2" y="61.5386" width="45.6" height="2.1" filterUnits="userSpaceOnUse" color-interpolation-filters="sRGB">
<feFlood flood-opacity="0" result="BackgroundImageFix"/>
<feBlend mode="normal" in="SourceGraphic" in2="BackgroundImageFix" result="shape"/>
<feGaussianBlur stdDeviation="0.4" result="effect1_foregroundBlur_26_16"/>
</filter>
<filter id="filter1_f_26_16" x="104.2" y="13.6316" width="50.6" height="2.6" filterUnits="userSpaceOnUse" color-interpolation-filters="sRGB">
<feFlood flood-opacity="0" result="BackgroundImageFix"/>
<feBlend mode="normal" in="SourceGraphic" in2="BackgroundImageFix" result="shape"/>
<feGaussianBlur stdDeviation="0.4" result="effect1_foregroundBlur_26_16"/>
</filter>
<filter id="filter2_f_26_16" x="1.2" y="12.9649" width="49.6" height="2.6" filterUnits="userSpaceOnUse" color-interpolation-filters="sRGB">
<feFlood flood-opacity="0" result="BackgroundImageFix"/>
<feBlend mode="normal" in="SourceGraphic" in2="BackgroundImageFix" result="shape"/>
<feGaussianBlur stdDeviation="0.4" result="effect1_foregroundBlur_26_16"/>
</filter>
<filter id="filter3_f_26_16" x="55.72" y="17.0472" width="10.3683" height="49.2085" filterUnits="userSpaceOnUse" color-interpolation-filters="sRGB">
<feFlood flood-opacity="0" result="BackgroundImageFix"/>
<feBlend mode="normal" in="SourceGraphic" in2="BackgroundImageFix" result="shape"/>
<feGaussianBlur stdDeviation="0.4" result="effect1_foregroundBlur_26_16"/>
</filter>
<filter id="filter4_f_26_16" x="67.2" y="16.6816" width="16.5912" height="25.9904" filterUnits="userSpaceOnUse" color-interpolation-filters="sRGB">
<feFlood flood-opacity="0" result="BackgroundImageFix"/>
<feBlend mode="normal" in="SourceGraphic" in2="BackgroundImageFix" result="shape"/>
<feGaussianBlur stdDeviation="0.4" result="effect1_foregroundBlur_26_16"/>
</filter>
<filter id="filter5_f_26_16" x="125.529" y="15.0907" width="13.0734" height="69.9871" filterUnits="userSpaceOnUse" color-interpolation-filters="sRGB">
<feFlood flood-opacity="0" result="BackgroundImageFix"/>
<feBlend mode="normal" in="SourceGraphic" in2="BackgroundImageFix" result="shape"/>
<feGaussianBlur stdDeviation="0.4" result="effect1_foregroundBlur_26_16"/>
</filter>
<filter id="filter6_f_26_16" x="124.371" y="18.9649" width="33.2938" height="60.7472" filterUnits="userSpaceOnUse" color-interpolation-filters="sRGB">
<feFlood flood-opacity="0" result="BackgroundImageFix"/>
<feBlend mode="normal" in="SourceGraphic" in2="BackgroundImageFix" result="shape"/>
<feGaussianBlur stdDeviation="0.4" result="effect1_foregroundBlur_26_16"/>
</filter>
<filter id="filter7_f_26_16" x="62.4965" y="7.01238" width="46.7899" height="19.0136" filterUnits="userSpaceOnUse" color-interpolation-filters="sRGB">
<feFlood flood-opacity="0" result="BackgroundImageFix"/>
<feBlend mode="normal" in="SourceGraphic" in2="BackgroundImageFix" result="shape"/>
<feGaussianBlur stdDeviation="0.4" result="effect1_foregroundBlur_26_16"/>
</filter>
<filter id="filter8_f_26_16" x="157" y="-5.16138" width="122" height="122" filterUnits="userSpaceOnUse" color-interpolation-filters="sRGB">
<feFlood flood-opacity="0" result="BackgroundImageFix"/>
<feBlend mode="normal" in="SourceGraphic" in2="BackgroundImageFix" result="shape"/>
<feGaussianBlur stdDeviation="20" result="effect1_foregroundBlur_26_16"/>
</filter>
<filter id="filter9_f_26_16" x="120" y="-10.2351" width="52" height="52" filterUnits="userSpaceOnUse" color-interpolation-filters="sRGB">
<feFlood flood-opacity="0" result="BackgroundImageFix"/>
<feBlend mode="normal" in="SourceGraphic" in2="BackgroundImageFix" result="shape"/>
<feGaussianBlur stdDeviation="9" result="effect1_foregroundBlur_26_16"/>
</filter>
<filter id="filter10_f_26_16" x="112" y="27.7649" width="52" height="52" filterUnits="userSpaceOnUse" color-interpolation-filters="sRGB">
<feFlood flood-opacity="0" result="BackgroundImageFix"/>
<feBlend mode="normal" in="SourceGraphic" in2="BackgroundImageFix" result="shape"/>
<feGaussianBlur stdDeviation="9" result="effect1_foregroundBlur_26_16"/>
</filter>
<filter id="filter11_f_26_16" x="-43" y="-33.235" width="112" height="112" filterUnits="userSpaceOnUse" color-interpolation-filters="sRGB">
<feFlood flood-opacity="0" result="BackgroundImageFix"/>
<feBlend mode="normal" in="SourceGraphic" in2="BackgroundImageFix" result="shape"/>
<feGaussianBlur stdDeviation="20" result="effect1_foregroundBlur_26_16"/>
</filter>
<filter id="filter12_f_26_16" x="25" y="-2.23511" width="88" height="88" filterUnits="userSpaceOnUse" color-interpolation-filters="sRGB">
<feFlood flood-opacity="0" result="BackgroundImageFix"/>
<feBlend mode="normal" in="SourceGraphic" in2="BackgroundImageFix" result="shape"/>
<feGaussianBlur stdDeviation="15" result="effect1_foregroundBlur_26_16"/>
</filter>
<linearGradient id="paint0_linear_26_16" x1="0" y1="38.5" x2="274" y2="38.5" gradientUnits="userSpaceOnUse">
<stop stop-color="#00B58A"/>
<stop offset="1" stop-color="#00FF66"/>
</linearGradient>
<linearGradient id="paint1_linear_26_16" x1="216.327" y1="62.5886" x2="260.327" y2="62.5886" gradientUnits="userSpaceOnUse">
<stop stop-opacity="0"/>
<stop offset="0.33" stop-color="#069747"/>
<stop offset="0.505" stop-color="#00FF73"/>
<stop offset="0.66" stop-color="#069747" stop-opacity="0.66"/>
<stop offset="1" stop-opacity="0"/>
</linearGradient>
<linearGradient id="paint2_linear_26_16" x1="105" y1="15.4316" x2="154" y2="15.4316" gradientUnits="userSpaceOnUse">
<stop stop-opacity="0"/>
<stop offset="0.33" stop-color="#01DF76" stop-opacity="0.46"/>
<stop offset="0.505" stop-color="#01DF76"/>
<stop offset="0.66" stop-color="#01DF76" stop-opacity="0.66"/>
<stop offset="1" stop-opacity="0"/>
</linearGradient>
<linearGradient id="paint3_linear_26_16" x1="2" y1="14.4316" x2="50" y2="14.4316" gradientUnits="userSpaceOnUse">
<stop stop-opacity="0"/>
<stop offset="0.33" stop-color="#007176" stop-opacity="0.46"/>
<stop offset="0.505" stop-color="#ADFBFF"/>
<stop offset="0.66" stop-color="#00878D" stop-opacity="0.66"/>
<stop offset="1" stop-opacity="0"/>
</linearGradient>
<linearGradient id="paint4_linear_26_16" x1="57.1497" y1="65.356" x2="64.6586" y2="17.947" gradientUnits="userSpaceOnUse">
<stop stop-opacity="0"/>
<stop offset="0.33" stop-color="#7A851B" stop-opacity="0.46"/>
<stop offset="0.505" stop-color="#CADF0F"/>
<stop offset="0.66" stop-color="#7A851B" stop-opacity="0.66"/>
<stop offset="1" stop-opacity="0"/>
</linearGradient>
<linearGradient id="paint5_linear_26_16" x1="69.8079" y1="56.4981" x2="72.3278" y2="8.41429" gradientUnits="userSpaceOnUse">
<stop stop-opacity="0"/>
<stop offset="0.33" stop-color="#E5FF00" stop-opacity="0.46"/>
<stop offset="0.505" stop-color="#E5FF00"/>
<stop offset="0.66" stop-color="#E5FF00" stop-opacity="0.66"/>
<stop offset="1" stop-opacity="0"/>
</linearGradient>
<linearGradient id="paint6_linear_26_16" x1="127.03" y1="84.3057" x2="137.845" y2="16.0229" gradientUnits="userSpaceOnUse">
<stop stop-opacity="0"/>
<stop offset="0.33" stop-color="#5AB734" stop-opacity="0.46"/>
<stop offset="0.505" stop-color="#5AB734"/>
<stop offset="0.66" stop-color="#5AB734" stop-opacity="0.66"/>
<stop offset="1" stop-opacity="0"/>
</linearGradient>
<linearGradient id="paint7_linear_26_16" x1="156.897" y1="78.7359" x2="125.545" y2="19.7702" gradientUnits="userSpaceOnUse">
<stop stop-opacity="0"/>
<stop offset="0.33" stop-color="#214D4F" stop-opacity="0.46"/>
<stop offset="0.505" stop-color="#6DA2A5"/>
<stop offset="0.66" stop-color="#214D4F" stop-opacity="0.66"/>
<stop offset="1" stop-opacity="0"/>
</linearGradient>
<linearGradient id="paint8_linear_26_16" x1="63.4104" y1="24.9215" x2="108.373" y2="8.11693" gradientUnits="userSpaceOnUse">
<stop stop-opacity="0"/>
<stop offset="0.33" stop-color="#00FF93" stop-opacity="0.32"/>
<stop offset="0.505" stop-color="#00FF93"/>
<stop offset="0.66" stop-color="#00FF93" stop-opacity="0.41"/>
<stop offset="1" stop-opacity="0"/>
</linearGradient>
<linearGradient id="paint9_linear_26_16" x1="0" y1="38.5" x2="274" y2="38.5" gradientUnits="userSpaceOnUse">
<stop stop-color="#393E46"/>
<stop offset="1" stop-color="#021F20"/>
</linearGradient>
</defs>
</svg>
