<svg width="88" height="40" viewBox="0 0 88 40" fill="none" xmlns="http://www.w3.org/2000/svg">
<path d="M23.7734 0H87.9995V40H0.706851L23.7734 0Z" fill="#EEEEEE"/>
<path d="M64.074 17.3887H63V17.3333H51V22.6667H58.5353C57.436 25.7713 54.482 28 51 28C46.582 28 43 24.418 43 20C43 15.582 46.582 12 51 12C53.0393 12 54.8947 12.7693 56.3073 14.026L60.0787 10.2547C57.6973 8.03532 54.512 6.66666 51 6.66666C43.6367 6.66666 37.6667 12.6367 37.6667 20C37.6667 27.3633 43.6367 33.3333 51 33.3333C58.3633 33.3333 64.3333 27.3633 64.3333 20C64.3333 19.106 64.2413 18.2333 64.074 17.3887Z" fill="#FFC107"/>
<path d="M39.204 13.794L43.5847 17.0067C44.77 14.072 47.6407 12 51 12C53.0393 12 54.8947 12.7693 56.3073 14.026L60.0787 10.2547C57.6973 8.03532 54.512 6.66666 51 6.66666C45.8787 6.66666 41.4373 9.55799 39.204 13.794Z" fill="#FF3D00"/>
<path d="M51 33.3333C54.444 33.3333 57.5733 32.0153 59.9393 29.872L55.8127 26.38C54.474 27.394 52.81 28 51 28C47.532 28 44.5873 25.7887 43.478 22.7027L39.13 26.0527C41.3367 30.3707 45.818 33.3333 51 33.3333Z" fill="#4CAF50"/>
<path d="M64.074 17.3887H63V17.3333H51V22.6667H58.5353C58.0073 24.158 57.048 25.444 55.8107 26.3807L55.8127 26.3793L59.9393 29.8713C59.6473 30.1367 64.3333 26.6667 64.3333 20C64.3333 19.106 64.2413 18.2333 64.074 17.3887Z" fill="#1976D2"/>
</svg>
